ETBookDisplayOT-Italic.ufo
<glyph name="percent" format="1">
  <advance width="731"/>
  <unicode hex="0025"/>
  <outline>
    <contour>
      <point x="752" y="194" type="curve" smooth="yes"/>
      <point x="733" y="96"/>
      <point x="660" y="17"/>
      <point x="583" y="17" type="curve" smooth="yes"/>
      <point x="503" y="17"/>
      <point x="461" y="99"/>
      <point x="480" y="197" type="curve" smooth="yes"/>
      <point x="499" y="295"/>
      <point x="573" y="374"/>
      <point x="650" y="374" type="curve" smooth="yes"/>
      <point x="728" y="374"/>
      <point x="771" y="293"/>
    </contour>
    <contour>
      <point x="655" y="623" type="curve" smooth="yes"/>
      <point x="237" y="-10" type="line" smooth="yes"/>
      <point x="231" y="-18"/>
      <point x="229" y="-22"/>
      <point x="217" y="-22" type="curve" smooth="yes"/>
      <point x="203" y="-22" type="line" smooth="yes"/>
      <point x="192" y="-21"/>
      <point x="185" y="-12"/>
      <point x="193" y="0" type="curve" smooth="yes"/>
      <point x="396" y="309"/>
      <point x="484" y="442"/>
      <point x="530" y="511" type="curve" smooth="yes"/>
      <point x="575" y="580"/>
      <point x="577" y="582"/>
      <point x="610" y="631" type="curve" smooth="yes"/>
      <point x="616" y="639"/>
      <point x="618" y="644"/>
      <point x="629" y="643" type="curve" smooth="yes"/>
      <point x="640" y="645"/>
      <point x="654" y="641"/>
      <point x="654" y="641" type="curve" smooth="yes"/>
      <point x="665" y="637"/>
      <point x="659" y="626"/>
    </contour>
    <contour>
      <point x="382" y="462" type="curve" smooth="yes"/>
      <point x="363" y="363"/>
      <point x="290" y="285"/>
      <point x="213" y="285" type="curve" smooth="yes"/>
      <point x="133" y="285"/>
      <point x="91" y="366"/>
      <point x="110" y="464" type="curve" smooth="yes"/>
      <point x="129" y="562"/>
      <point x="203" y="641"/>
      <point x="280" y="641" type="curve" smooth="yes"/>
      <point x="359" y="641"/>
      <point x="401" y="560"/>
    </contour>
    <contour>
      <point x="682" y="197" type="curve" smooth="yes"/>
      <point x="703" y="305"/>
      <point x="687" y="346"/>
      <point x="647" y="346" type="curve" smooth="yes"/>
      <point x="603" y="346"/>
      <point x="570" y="301"/>
      <point x="549" y="194" type="curve" smooth="yes"/>
      <point x="528" y="87"/>
      <point x="545" y="46"/>
      <point x="586" y="46" type="curve" smooth="yes"/>
      <point x="629" y="46"/>
      <point x="662" y="91"/>
    </contour>
    <contour>
      <point x="312" y="464" type="curve" smooth="yes"/>
      <point x="333" y="572"/>
      <point x="317" y="613"/>
      <point x="277" y="613" type="curve" smooth="yes"/>
      <point x="233" y="613"/>
      <point x="200" y="568"/>
      <point x="179" y="462" type="curve" smooth="yes"/>
      <point x="158" y="354"/>
      <point x="175" y="313"/>
      <point x="216" y="313" type="curve" smooth="yes"/>
      <point x="260" y="313"/>
      <point x="292" y="358"/>
    </contour>
  </outline>
</glyph>
<glyph name="quotesingle" format="1">
  <advance width="223"/>
  <unicode hex="0027"/>
  <outline>
    <contour>
      <point x="251" y="662" type="curve" smooth="yes"/>
      <point x="321" y="662"/>
      <point x="284" y="564"/>
      <point x="245" y="489" type="curve" smooth="yes"/>
      <point x="188" y="379" type="line" smooth="yes"/>
      <point x="182" y="368"/>
      <point x="181" y="363"/>
      <point x="168" y="363" type="curve" smooth="yes"/>
      <point x="159" y="363"/>
      <point x="157" y="377"/>
      <point x="157" y="386" type="curve" smooth="yes"/>
      <point x="168" y="509" type="line" smooth="yes"/>
      <point x="172" y="558"/>
      <point x="179" y="662"/>
    </contour>
  </outline>
</glyph>
<glyph name="period" format="1">
  <advance width="244"/>
  <unicode hex="002E"/>
  <outline>
    <contour>
      <point x="168" y="48" type="curve" smooth="yes"/>
      <point x="168" y="13"/>
      <point x="147" y="-14"/>
      <point x="118" y="-14" type="curve" smooth="yes"/>
      <point x="85" y="-14"/>
      <point x="73" y="14"/>
      <point x="77" y="42" type="curve" smooth="yes"/>
      <point x="80" y="73"/>
      <point x="102" y="96"/>
      <point x="127" y="96" type="curve" smooth="yes"/>
      <point x="152" y="96"/>
      <point x="168" y="76"/>
    </contour>
  </outline>
</glyph>
<glyph name="one" format="1">
  <advance width="380"/>
  <unicode hex="0031"/>
  <outline>
    <contour>
      <point x="319" y="446" type="curve" smooth="yes"/>
      <point x="248" y="86" type="line" smooth="yes"/>
      <point x="242" y="58"/>
      <point x="242" y="52"/>
      <point x="242" y="50" type="curve" smooth="yes"/>
      <point x="242" y="31"/>
      <point x="255" y="26"/>
      <point x="314" y="22" type="curve" smooth="yes"/>
      <point x="322" y="22"/>
      <point x="319" y="-1"/>
      <point x="309" y="-1" type="curve" smooth="yes"/>
      <point x="234" y="0"/>
      <point x="136" y="1"/>
      <point x="77" y="-1" type="curve" smooth="yes"/>
      <point x="73" y="-1"/>
      <point x="71" y="5"/>
      <point x="72" y="9" type="curve" smooth="yes"/>
      <point x="73" y="16"/>
      <point x="78" y="21"/>
      <point x="81" y="22" type="curve" smooth="yes"/>
      <point x="103" y="23"/>
      <point x="131" y="26"/>
      <point x="151" y="34" type="curve" smooth="yes"/>
      <point x="168" y="41"/>
      <point x="169" y="57"/>
      <point x="172" y="73" type="curve" smooth="yes"/>
      <point x="232" y="378" type="line" smooth="yes"/>
      <point x="235" y="395"/>
      <point x="225" y="386"/>
      <point x="222" y="386" type="curve" smooth="yes"/>
      <point x="153" y="355" type="line" smooth="yes"/>
      <point x="149" y="353"/>
      <point x="148" y="360"/>
      <point x="148" y="365" type="curve" smooth="yes"/>
      <point x="148" y="372"/>
      <point x="150" y="379"/>
      <point x="156" y="381" type="curve" smooth="yes"/>
      <point x="284" y="454" type="line" smooth="yes"/>
      <point x="293" y="461"/>
      <point x="297" y="460"/>
      <point x="305" y="460" type="curve" smooth="yes"/>
      <point x="312" y="460"/>
      <point x="320" y="451"/>
    </contour>
  </outline>
</glyph>
<glyph name="seven" format="1">
  <advance width="409"/>
  <unicode hex="0037"/>
  <outline>
    <contour>
      <point x="420" y="428" type="line"/>
      <point x="414" y="411"/>
      <point x="405" y="395"/>
      <point x="396" y="379" type="curve" smooth="yes"/>
      <point x="121" y="-126" type="line" smooth="yes"/>
      <point x="99" y="-166"/>
      <point x="95" y="-169"/>
      <point x="84" y="-169" type="curve" smooth="yes"/>
      <point x="62" y="-169" type="line" smooth="yes"/>
      <point x="38" y="-169"/>
      <point x="54" y="-138"/>
      <point x="59" y="-130" type="curve" smooth="yes"/>
      <point x="352" y="363" type="line" smooth="yes"/>
      <point x="359" y="374"/>
      <point x="339" y="373"/>
      <point x="333" y="373" type="curve" smooth="yes"/>
      <point x="271" y="371"/>
      <point x="219" y="379"/>
      <point x="158" y="373" type="curve" smooth="yes"/>
      <point x="132" y="370"/>
      <point x="130" y="360"/>
      <point x="122" y="336" type="curve" smooth="yes"/>
      <point x="102" y="277" type="line" smooth="yes"/>
      <point x="101" y="273"/>
      <point x="94" y="272"/>
      <point x="89" y="273" type="curve" smooth="yes"/>
      <point x="80" y="276"/>
      <point x="82" y="277"/>
      <point x="83" y="284" type="curve" smooth="yes"/>
      <point x="117" y="421" type="line" smooth="yes"/>
      <point x="122" y="441"/>
      <point x="123" y="442"/>
      <point x="145" y="443" type="curve" smooth="yes"/>
      <point x="241" y="448"/>
      <point x="280" y="441"/>
      <point x="340" y="441" type="curve" smooth="yes"/>
      <point x="359" y="441"/>
      <point x="370" y="442"/>
      <point x="394" y="444" type="curve" smooth="yes"/>
      <point x="405" y="445"/>
      <point x="420" y="444"/>
      <point x="420" y="437" type="curve" smooth="yes"/>
    </contour>
  </outline>
</glyph>
<glyph name="eight" format="1">
  <advance width="463"/>
  <unicode hex="0038"/>
  <outline>
    <contour>
      <point x="450" y="508" type="curve" smooth="yes"/>
      <point x="450" y="477"/>
      <point x="427" y="425"/>
      <point x="315" y="357" type="curve" smooth="yes"/>
      <point x="309" y="353"/>
      <point x="312" y="350"/>
      <point x="315" y="347" type="curve" smooth="yes"/>
      <point x="348" y="316"/>
      <point x="390" y="271"/>
      <point x="390" y="199" type="curve" smooth="yes"/>
      <point x="390" y="76"/>
      <point x="247" y="-12"/>
      <point x="181" y="-12" type="curve" smooth="yes"/>
      <point x="165" y="-12"/>
      <point x="136" y="-11"/>
      <point x="94" y="47" type="curve" smooth="yes"/>
      <point x="73" y="76"/>
      <point x="57" y="114"/>
      <point x="57" y="145" type="curve" smooth="yes"/>
      <point x="57" y="228"/>
      <point x="160" y="297"/>
      <point x="211" y="328" type="curve" smooth="yes"/>
      <point x="214" y="330"/>
      <point x="219" y="336"/>
      <point x="214" y="341" type="curve" smooth="yes"/>
      <point x="190" y="367"/>
      <point x="155" y="410"/>
      <point x="155" y="452" type="curve" smooth="yes"/>
      <point x="155" y="477"/>
      <point x="161" y="513"/>
      <point x="232" y="565" type="curve" smooth="yes"/>
      <point x="243" y="573"/>
      <point x="309" y="614"/>
      <point x="344" y="614" type="curve" smooth="yes"/>
      <point x="406" y="614"/>
      <point x="450" y="544"/>
    </contour>
    <contour>
      <point x="386" y="486" type="curve" smooth="yes"/>
      <point x="386" y="533"/>
      <point x="324" y="576"/>
      <point x="300" y="576" type="curve" smooth="yes"/>
      <point x="281" y="576"/>
      <point x="217" y="546"/>
      <point x="217" y="486" type="curve" smooth="yes"/>
      <point x="217" y="440"/>
      <point x="259" y="398"/>
      <point x="291" y="368" type="curve"/>
      <point x="332" y="396"/>
      <point x="386" y="434"/>
    </contour>
    <contour>
      <point x="334" y="161" type="curve" smooth="yes"/>
      <point x="334" y="239"/>
      <point x="272" y="290"/>
      <point x="237" y="317" type="curve"/>
      <point x="192" y="288"/>
      <point x="122" y="239"/>
      <point x="122" y="172" type="curve" smooth="yes"/>
      <point x="122" y="117"/>
      <point x="180" y="22"/>
      <point x="218" y="22" type="curve" smooth="yes"/>
      <point x="238" y="22"/>
      <point x="334" y="67"/>
    </contour>
  </outline>
</glyph>
<glyph name="colon" format="1">
  <advance width="297"/>
  <unicode hex="003A"/>
  <outline>
    <contour>
      <point x="270" y="375" type="curve" smooth="yes"/>
      <point x="270" y="340"/>
      <point x="248" y="314"/>
      <point x="220" y="314" type="curve" smooth="yes"/>
      <point x="191" y="314"/>
      <point x="176" y="342"/>
      <point x="177" y="371" type="curve" smooth="yes"/>
      <point x="182" y="402"/>
      <point x="198" y="425"/>
      <point x="229" y="425" type="curve" smooth="yes"/>
      <point x="253" y="425"/>
      <point x="270" y="404"/>
    </contour>
    <contour>
      <point x="206" y="48" type="curve" smooth="yes"/>
      <point x="206" y="13"/>
      <point x="185" y="-14"/>
      <point x="156" y="-14" type="curve" smooth="yes"/>
      <point x="124" y="-14"/>
      <point x="111" y="16"/>
      <point x="113" y="43" type="curve" smooth="yes"/>
      <point x="116" y="75"/>
      <point x="138" y="97"/>
      <point x="165" y="97" type="curve" smooth="yes"/>
      <point x="190" y="97"/>
      <point x="206" y="77"/>
    </contour>
  </outline>
</glyph>
<glyph name="question" format="1">
  <advance width="403"/>
  <unicode hex="003F"/>
  <outline>
    <contour>
      <point x="396" y="501" type="curve" smooth="yes"/>
      <point x="396" y="439"/>
      <point x="376" y="383"/>
      <point x="343" y="351" type="curve" smooth="yes"/>
      <point x="321" y="330"/>
      <point x="294" y="318"/>
      <point x="268" y="304" type="curve" smooth="yes"/>
      <point x="243" y="291"/>
      <point x="220" y="276"/>
      <point x="204" y="245" type="curve" smooth="yes"/>
      <point x="190" y="219"/>
      <point x="185" y="208"/>
      <point x="176" y="169" type="curve" smooth="yes"/>
      <point x="174" y="160"/>
      <point x="152" y="155"/>
      <point x="153" y="169" type="curve" smooth="yes"/>
      <point x="158" y="249"/>
      <point x="178" y="313"/>
      <point x="203" y="346" type="curve" smooth="yes"/>
      <point x="225" y="376"/>
      <point x="266" y="394"/>
      <point x="297" y="413" type="curve" smooth="yes"/>
      <point x="331" y="434"/>
      <point x="358" y="458"/>
      <point x="358" y="503" type="curve" smooth="yes"/>
      <point x="358" y="548"/>
      <point x="321" y="583"/>
      <point x="270" y="583" type="curve" smooth="yes"/>
      <point x="240" y="583"/>
      <point x="213" y="567"/>
      <point x="186" y="567" type="curve" smooth="yes"/>
      <point x="170" y="567"/>
      <point x="158" y="585"/>
      <point x="158" y="607" type="curve" smooth="yes"/>
      <point x="158" y="640"/>
      <point x="200" y="662"/>
      <point x="252" y="662" type="curve" smooth="yes"/>
      <point x="337" y="662"/>
      <point x="396" y="597"/>
    </contour>
    <contour>
      <point x="185" y="48" type="curve" smooth="yes"/>
      <point x="185" y="13"/>
      <point x="164" y="-14"/>
      <point x="134" y="-14" type="curve" smooth="yes"/>
      <point x="101" y="-14"/>
      <point x="94" y="15"/>
      <point x="94" y="42" type="curve" smooth="yes"/>
      <point x="97" y="74"/>
      <point x="118" y="97"/>
      <point x="143" y="97" type="curve" smooth="yes"/>
      <point x="168" y="97"/>
      <point x="185" y="77"/>
    </contour>
  </outline>
</glyph>
<glyph name="at" format="1">
  <advance width="933"/>
  <unicode hex="0040"/>
  <outline>
    <contour>
      <point x="968" y="84" type="curve"/>
      <point x="905" y="-109"/>
      <point x="735" y="-213"/>
      <point x="535" y="-213" type="curve" smooth="yes"/>
      <point x="285" y="-213"/>
      <point x="100" y="-34"/>
      <point x="100" y="225" type="curve" smooth="yes"/>
      <point x="100" y="504"/>
      <point x="307" y="712"/>
      <point x="572" y="712" type="curve" smooth="yes"/>
      <point x="784" y="712"/>
      <point x="928" y="581"/>
      <point x="928" y="373" type="curve" smooth="yes"/>
      <point x="928" y="176"/>
      <point x="805" y="14"/>
      <point x="653" y="14" type="curve" smooth="yes"/>
      <point x="601" y="14"/>
      <point x="575" y="38"/>
      <point x="575" y="86" type="curve" smooth="yes"/>
      <point x="575" y="101"/>
      <point x="576" y="112"/>
      <point x="579" y="134" type="curve" smooth="yes"/>
      <point x="580" y="140"/>
      <point x="580" y="152"/>
      <point x="567" y="136" type="curve" smooth="yes"/>
      <point x="541" y="103"/>
      <point x="530" y="91"/>
      <point x="506" y="69" type="curve" smooth="yes"/>
      <point x="467" y="34"/>
      <point x="425" y="14"/>
      <point x="390" y="14" type="curve" smooth="yes"/>
      <point x="337" y="14"/>
      <point x="298" y="66"/>
      <point x="298" y="134" type="curve" smooth="yes"/>
      <point x="298" y="220"/>
      <point x="349" y="330"/>
      <point x="424" y="408" type="curve" smooth="yes"/>
      <point x="475" y="460"/>
      <point x="529" y="490"/>
      <point x="574" y="490" type="curve" smooth="yes"/>
      <point x="609" y="490"/>
      <point x="635" y="476"/>
      <point x="651" y="443" type="curve" smooth="yes"/>
      <point x="659" y="427"/>
      <point x="661" y="442"/>
      <point x="666" y="447" type="curve" smooth="yes"/>
      <point x="672" y="464"/>
      <point x="684" y="473"/>
      <point x="693" y="476" type="curve" smooth="yes"/>
      <point x="734" y="484" type="line" smooth="yes"/>
      <point x="745" y="483"/>
      <point x="750" y="477"/>
      <point x="747" y="456" type="curve" smooth="yes"/>
      <point x="741" y="434"/>
      <point x="600" y="54"/>
      <point x="687" y="54" type="curve" smooth="yes"/>
      <point x="723" y="54"/>
      <point x="774" y="85"/>
      <point x="808" y="127" type="curve" smooth="yes"/>
      <point x="862" y="193"/>
      <point x="894" y="289"/>
      <point x="894" y="382" type="curve" smooth="yes"/>
      <point x="894" y="563"/>
      <point x="762" y="681"/>
      <point x="576" y="681" type="curve" smooth="yes"/>
      <point x="338" y="681"/>
      <point x="151" y="480"/>
      <point x="151" y="212" type="curve" smooth="yes"/>
      <point x="151" y="-24"/>
      <point x="311" y="-178"/>
      <point x="537" y="-178" type="curve" smooth="yes"/>
      <point x="717" y="-178"/>
      <point x="859" y="-91"/>
      <point x="935" y="89" type="curve" smooth="yes"/>
      <point x="939" y="93"/>
      <point x="945" y="97"/>
      <point x="951" y="97" type="curve" smooth="yes"/>
      <point x="959" y="96"/>
      <point x="963" y="89"/>
    </contour>
    <contour>
      <point x="639" y="390" type="curve" smooth="yes"/>
      <point x="639" y="433"/>
      <point x="614" y="462"/>
      <point x="579" y="462" type="curve" smooth="yes"/>
      <point x="553" y="462"/>
      <point x="523" y="445"/>
      <point x="498" y="415" type="curve" smooth="yes"/>
      <point x="435" y="341"/>
      <point x="381" y="218"/>
      <point x="381" y="149" type="curve" smooth="yes"/>
      <point x="381" y="110"/>
      <point x="406" y="79"/>
      <point x="436" y="79" type="curve" smooth="yes"/>
      <point x="475" y="79"/>
      <point x="517" y="110"/>
      <point x="566" y="176" type="curve" smooth="yes"/>
      <point x="592" y="211"/>
      <point x="602" y="231"/>
      <point x="617" y="277" type="curve" smooth="yes"/>
      <point x="632" y="325"/>
      <point x="639" y="362"/>
    </contour>
  </outline>
</glyph>
<glyph name="F" format="1">
  <advance width="549"/>
  <unicode hex="0046"/>
  <outline>
    <contour>
      <point x="610" y="626" type="curve" smooth="yes"/>
      <point x="584" y="503" type="line" smooth="yes"/>
      <point x="584" y="500"/>
      <point x="578" y="498"/>
      <point x="572" y="497" type="curve" smooth="yes"/>
      <point x="558" y="496"/>
      <point x="563" y="514"/>
      <point x="563" y="521" type="curve" smooth="yes"/>
      <point x="563" y="593"/>
      <point x="539" y="616"/>
      <point x="464" y="616" type="curve" smooth="yes"/>
      <point x="342" y="616" type="line" smooth="yes"/>
      <point x="339" y="616"/>
      <point x="324" y="616"/>
      <point x="319" y="602" type="curve"/>
      <point x="314" y="604"/>
      <point x="262" y="363"/>
      <point x="262" y="363" type="curve" smooth="yes"/>
      <point x="260" y="353"/>
      <point x="264" y="345"/>
      <point x="276" y="345" type="curve" smooth="yes"/>
      <point x="296" y="344"/>
      <point x="379" y="345"/>
      <point x="414" y="345" type="curve" smooth="yes"/>
      <point x="465" y="346"/>
      <point x="487" y="363"/>
      <point x="514" y="414" type="curve" smooth="yes"/>
      <point x="516" y="419"/>
      <point x="544" y="431"/>
      <point x="537" y="405" type="curve" smooth="yes"/>
      <point x="522" y="352"/>
      <point x="504" y="266"/>
      <point x="499" y="227" type="curve" smooth="yes"/>
      <point x="497" y="215"/>
      <point x="476" y="217"/>
      <point x="476" y="225" type="curve" smooth="yes"/>
      <point x="476" y="293"/>
      <point x="458" y="311"/>
      <point x="400" y="311" type="curve" smooth="yes"/>
      <point x="264" y="311" type="line" smooth="yes"/>
      <point x="260" y="311"/>
      <point x="251" y="307"/>
      <point x="249" y="297" type="curve" smooth="yes"/>
      <point x="210" y="112" type="line" smooth="yes"/>
      <point x="198" y="53"/>
      <point x="201" y="27"/>
      <point x="274" y="27" type="curve" smooth="yes"/>
      <point x="286" y="30"/>
      <point x="304" y="29"/>
      <point x="303" y="12" type="curve" smooth="yes"/>
      <point x="302" y="6"/>
      <point x="299" y="-1"/>
      <point x="289" y="-2" type="curve" smooth="yes"/>
      <point x="220" y="-1"/>
      <point x="93" y="-1"/>
      <point x="17" y="-2" type="curve" smooth="yes"/>
      <point x="2" y="-2"/>
      <point x="8" y="27"/>
      <point x="21" y="25" type="curve" smooth="yes"/>
      <point x="32" y="25" type="line" smooth="yes"/>
      <point x="85" y="25"/>
      <point x="105" y="41"/>
      <point x="120" y="113" type="curve" smooth="yes"/>
      <point x="209" y="532" type="line" smooth="yes"/>
      <point x="214" y="555"/>
      <point x="215" y="564"/>
      <point x="215" y="573" type="curve" smooth="yes"/>
      <point x="215" y="601"/>
      <point x="191" y="617"/>
      <point x="150" y="617" type="curve" smooth="yes"/>
      <point x="133" y="617" type="line" smooth="yes"/>
      <point x="120" y="617"/>
      <point x="124" y="648"/>
      <point x="143" y="646" type="curve" smooth="yes"/>
      <point x="256" y="645"/>
      <point x="444" y="645"/>
      <point x="582" y="646" type="curve" smooth="yes"/>
      <point x="594" y="646"/>
      <point x="614" y="645"/>
    </contour>
  </outline>
</glyph>
<glyph name="G" format="1">
  <advance width="747"/>
  <unicode hex="0047"/>
  <outline>
    <contour>
      <point x="763" y="242" type="curve" smooth="yes"/>
      <point x="772" y="241"/>
      <point x="768" y="216"/>
      <point x="760" y="215" type="curve" smooth="yes"/>
      <point x="756" y="215"/>
      <point x="751" y="215"/>
      <point x="747" y="215" type="curve" smooth="yes"/>
      <point x="672" y="206"/>
      <point x="679" y="168"/>
      <point x="665" y="108" type="curve" smooth="yes"/>
      <point x="656" y="73"/>
      <point x="649" y="43"/>
      <point x="696" y="41" type="curve" smooth="yes"/>
      <point x="701" y="39"/>
      <point x="704" y="22"/>
      <point x="692" y="19" type="curve" smooth="yes"/>
      <point x="607" y="-3"/>
      <point x="498" y="-18"/>
      <point x="409" y="-18" type="curve" smooth="yes"/>
      <point x="230" y="-18"/>
      <point x="61" y="87"/>
      <point x="61" y="284" type="curve" smooth="yes"/>
      <point x="61" y="494"/>
      <point x="236" y="662"/>
      <point x="489" y="662" type="curve" smooth="yes"/>
      <point x="564" y="662"/>
      <point x="642" y="645"/>
      <point x="722" y="616" type="curve" smooth="yes"/>
      <point x="726" y="615"/>
      <point x="731" y="608"/>
      <point x="733" y="595" type="curve" smooth="yes"/>
      <point x="737" y="474" type="line" smooth="yes"/>
      <point x="740" y="461"/>
      <point x="716" y="461"/>
      <point x="714" y="468" type="curve" smooth="yes"/>
      <point x="688" y="572"/>
      <point x="609" y="632"/>
      <point x="485" y="632" type="curve" smooth="yes"/>
      <point x="288" y="632"/>
      <point x="159" y="473"/>
      <point x="159" y="271" type="curve" smooth="yes"/>
      <point x="159" y="108"/>
      <point x="232" y="12"/>
      <point x="412" y="12" type="curve" smooth="yes"/>
      <point x="473" y="12"/>
      <point x="534" y="28"/>
      <point x="557" y="51" type="curve" smooth="yes"/>
      <point x="577" y="70"/>
      <point x="591" y="142"/>
      <point x="591" y="171" type="curve" smooth="yes"/>
      <point x="591" y="206"/>
      <point x="576" y="210"/>
      <point x="531" y="215" type="curve" smooth="yes"/>
      <point x="522" y="216" type="line" smooth="yes"/>
      <point x="507" y="218"/>
      <point x="517" y="242"/>
      <point x="526" y="242" type="curve" smooth="yes"/>
      <point x="601" y="240"/>
      <point x="704" y="240"/>
    </contour>
  </outline>
</glyph>
<glyph name="K" format="1">
  <advance width="710"/>
  <unicode hex="004B"/>
  <outline>
    <contour>
      <point x="810" y="640" type="curve" smooth="yes"/>
      <point x="811" y="633"/>
      <point x="806" y="623"/>
      <point x="802" y="622" type="curve" smooth="yes"/>
      <point x="797" y="621"/>
      <point x="799" y="622"/>
      <point x="794" y="620" type="curve" smooth="yes"/>
      <point x="753" y="612" type="line" smooth="yes"/>
      <point x="711" y="604"/>
      <point x="651" y="578"/>
      <point x="570" y="517" type="curve" smooth="yes"/>
      <point x="570" y="517"/>
      <point x="450" y="428"/>
      <point x="372" y="368" type="curve" smooth="yes"/>
      <point x="361" y="360"/>
      <point x="366" y="353"/>
      <point x="369" y="349" type="curve" smooth="yes"/>
      <point x="578" y="88" type="line" smooth="yes"/>
      <point x="619" y="36"/>
      <point x="656" y="24"/>
      <point x="704" y="24" type="curve" smooth="yes"/>
      <point x="711" y="24" type="line" smooth="yes"/>
      <point x="721" y="24"/>
      <point x="715" y="-3"/>
      <point x="705" y="-3" type="curve" smooth="yes"/>
      <point x="666" y="-1"/>
      <point x="601" y="-1"/>
      <point x="556" y="-3" type="curve" smooth="yes"/>
      <point x="546" y="-3"/>
      <point x="540" y="1"/>
      <point x="535" y="8" type="curve" smooth="yes"/>
      <point x="291" y="313" type="line"/>
      <point x="262" y="295" type="line" smooth="yes"/>
      <point x="257" y="291"/>
      <point x="254" y="289"/>
      <point x="252" y="279" type="curve" smooth="yes"/>
      <point x="217" y="111" type="line" smooth="yes"/>
      <point x="205" y="54"/>
      <point x="200" y="22"/>
      <point x="285" y="22" type="curve" smooth="yes"/>
      <point x="293" y="23"/>
      <point x="305" y="21"/>
      <point x="303" y="10" type="curve" smooth="yes"/>
      <point x="301" y="2"/>
      <point x="300" y="0"/>
      <point x="291" y="-3" type="curve" smooth="yes"/>
      <point x="219" y="-1"/>
      <point x="86" y="-1"/>
      <point x="20" y="-3" type="curve" smooth="yes"/>
      <point x="10" y="-1"/>
      <point x="7" y="4"/>
      <point x="9" y="10" type="curve" smooth="yes"/>
      <point x="15" y="29"/>
      <point x="32" y="22"/>
      <point x="46" y="23" type="curve" smooth="yes"/>
      <point x="96" y="28"/>
      <point x="112" y="48"/>
      <point x="126" y="112" type="curve" smooth="yes"/>
      <point x="216" y="532" type="line" smooth="yes"/>
      <point x="221" y="554"/>
      <point x="222" y="567"/>
      <point x="222" y="576" type="curve" smooth="yes"/>
      <point x="222" y="605"/>
      <point x="204" y="620"/>
      <point x="161" y="620" type="curve" smooth="yes"/>
      <point x="154" y="620" type="line" smooth="yes"/>
      <point x="145" y="619"/>
      <point x="146" y="645"/>
      <point x="162" y="645" type="curve" smooth="yes"/>
      <point x="219" y="643"/>
      <point x="347" y="642"/>
      <point x="417" y="645" type="curve" smooth="yes"/>
      <point x="431" y="645"/>
      <point x="424" y="620"/>
      <point x="412" y="620" type="curve" smooth="yes"/>
      <point x="412" y="620"/>
      <point x="402" y="620"/>
      <point x="401" y="620" type="curve" smooth="yes"/>
      <point x="339" y="619"/>
      <point x="320" y="604"/>
      <point x="305" y="531" type="curve" smooth="yes"/>
      <point x="268" y="354" type="line" smooth="yes"/>
      <point x="266" y="346"/>
      <point x="269" y="338"/>
      <point x="283" y="348" type="curve" smooth="yes"/>
      <point x="385" y="420"/>
      <point x="476" y="491"/>
      <point x="579" y="560" type="curve" smooth="yes"/>
      <point x="589" y="567"/>
      <point x="608" y="580"/>
      <point x="608" y="596" type="curve" smooth="yes"/>
      <point x="608" y="613"/>
      <point x="598" y="620"/>
      <point x="566" y="620" type="curve" smooth="yes"/>
      <point x="558" y="620"/>
      <point x="553" y="620"/>
      <point x="556" y="632" type="curve" smooth="yes"/>
      <point x="557" y="639"/>
      <point x="562" y="645"/>
      <point x="567" y="645" type="curve" smooth="yes"/>
      <point x="645" y="641"/>
      <point x="723" y="643"/>
      <point x="801" y="645" type="curve" smooth="yes"/>
      <point x="804" y="645"/>
      <point x="809" y="645"/>
    </contour>
  </outline>
</glyph>
<glyph name="M" format="1">
  <advance width="883"/>
  <unicode hex="004D"/>
  <outline>
    <contour>
      <point x="956" y="641" type="curve" smooth="yes"/>
      <point x="957" y="636"/>
      <point x="955" y="620"/>
      <point x="946" y="621" type="curve" smooth="yes"/>
      <point x="939" y="621" type="line" smooth="yes"/>
      <point x="877" y="621"/>
      <point x="856" y="605"/>
      <point x="841" y="532" type="curve" smooth="yes"/>
      <point x="752" y="112" type="line" smooth="yes"/>
      <point x="741" y="62"/>
      <point x="737" y="23"/>
      <point x="809" y="23" type="curve" smooth="yes"/>
      <point x="820" y="23"/>
      <point x="832" y="25"/>
      <point x="827" y="9" type="curve" smooth="yes"/>
      <point x="826" y="3"/>
      <point x="819" y="-3"/>
      <point x="814" y="-2" type="curve" smooth="yes"/>
      <point x="716" y="3"/>
      <point x="607" y="-1"/>
      <point x="553" y="-2" type="curve" smooth="yes"/>
      <point x="540" y="-3"/>
      <point x="546" y="24"/>
      <point x="556" y="24" type="curve" smooth="yes"/>
      <point x="570" y="24"/>
      <point x="583" y="24"/>
      <point x="596" y="26" type="curve" smooth="yes"/>
      <point x="636" y="33"/>
      <point x="651" y="56"/>
      <point x="663" y="113" type="curve" smooth="yes"/>
      <point x="755" y="537" type="line" smooth="yes"/>
      <point x="759" y="554"/>
      <point x="752" y="554"/>
      <point x="744" y="541" type="curve" smooth="yes"/>
      <point x="402" y="1" type="line"/>
      <point x="386" y="-9"/>
      <point x="360" y="-5"/>
      <point x="357" y="2" type="curve" smooth="yes"/>
      <point x="283" y="536" type="line" smooth="yes"/>
      <point x="281" y="554"/>
      <point x="274" y="545"/>
      <point x="272" y="537" type="curve" smooth="yes"/>
      <point x="153" y="129" type="line" smooth="yes"/>
      <point x="149" y="116"/>
      <point x="147" y="101"/>
      <point x="147" y="87" type="curve" smooth="yes"/>
      <point x="147" y="45"/>
      <point x="169" y="26"/>
      <point x="220" y="22" type="curve" smooth="yes"/>
      <point x="225" y="22"/>
      <point x="225" y="16"/>
      <point x="223" y="10" type="curve" smooth="yes"/>
      <point x="222" y="2"/>
      <point x="218" y="-2"/>
      <point x="215" y="-2" type="curve" smooth="yes"/>
      <point x="161" y="0"/>
      <point x="54" y="1"/>
      <point x="0" y="-2" type="curve" smooth="yes"/>
      <point x="-5" y="-2"/>
      <point x="-7" y="5"/>
      <point x="-6" y="11" type="curve" smooth="yes"/>
      <point x="-4" y="18"/>
      <point x="2" y="22"/>
      <point x="5" y="22" type="curve" smooth="yes"/>
      <point x="42" y="27"/>
      <point x="67" y="41"/>
      <point x="84" y="62" type="curve" smooth="yes"/>
      <point x="98" y="79"/>
      <point x="114" y="120"/>
      <point x="132" y="181" type="curve" smooth="yes"/>
      <point x="232" y="524" type="line" smooth="yes"/>
      <point x="248" y="578"/>
      <point x="248" y="619"/>
      <point x="176" y="620" type="curve" smooth="yes"/>
      <point x="161" y="620"/>
      <point x="155" y="620"/>
      <point x="146" y="622" type="curve" smooth="yes"/>
      <point x="139" y="626"/>
      <point x="143" y="648"/>
      <point x="156" y="645" type="curve" smooth="yes"/>
      <point x="202" y="644"/>
      <point x="287" y="644"/>
      <point x="333" y="646" type="curve" smooth="yes"/>
      <point x="343" y="647"/>
      <point x="352" y="644"/>
      <point x="352" y="637" type="curve" smooth="yes"/>
      <point x="422" y="139" type="line" smooth="yes"/>
      <point x="424" y="131"/>
      <point x="430" y="119"/>
      <point x="436" y="130" type="curve" smooth="yes"/>
      <point x="770" y="638" type="line" smooth="yes"/>
      <point x="774" y="645"/>
      <point x="781" y="646"/>
      <point x="789" y="646" type="curve" smooth="yes"/>
      <point x="825" y="645"/>
      <point x="902" y="644"/>
      <point x="943" y="646" type="curve" smooth="yes"/>
      <point x="951" y="646"/>
      <point x="955" y="645"/>
    </contour>
  </outline>
</glyph>
<glyph name="Q" format="1">
  <advance width="798"/>
  <unicode hex="0051"/>
  <outline>
    <contour>
      <point x="784" y="-156" type="curve" smooth="yes"/>
      <point x="751" y="-184"/>
      <point x="719" y="-202"/>
      <point x="663" y="-202" type="curve" smooth="yes"/>
      <point x="553" y="-202"/>
      <point x="426" y="-89"/>
      <point x="337" y="-31" type="curve" smooth="yes"/>
      <point x="332" y="-27"/>
      <point x="311" y="-12"/>
      <point x="305" y="-11" type="curve" smooth="yes"/>
      <point x="165" y="19"/>
      <point x="62" y="147"/>
      <point x="62" y="287" type="curve" smooth="yes"/>
      <point x="62" y="488"/>
      <point x="239" y="662"/>
      <point x="458" y="662" type="curve" smooth="yes"/>
      <point x="648" y="662"/>
      <point x="778" y="531"/>
      <point x="778" y="358" type="curve" smooth="yes"/>
      <point x="778" y="182"/>
      <point x="661" y="25"/>
      <point x="474" y="-11" type="curve" smooth="yes"/>
      <point x="469" y="-12"/>
      <point x="461" y="-15"/>
      <point x="468" y="-21" type="curve" smooth="yes"/>
      <point x="473" y="-24"/>
      <point x="481" y="-29"/>
      <point x="494" y="-38" type="curve" smooth="yes"/>
      <point x="527" y="-61"/>
      <point x="629" y="-134"/>
      <point x="670" y="-145" type="curve" smooth="yes"/>
      <point x="714" y="-156"/>
      <point x="739" y="-153"/>
      <point x="768" y="-139" type="curve" smooth="yes"/>
      <point x="778" y="-131"/>
      <point x="790" y="-151"/>
    </contour>
    <contour>
      <point x="679" y="388" type="curve" smooth="yes"/>
      <point x="679" y="532"/>
      <point x="599" y="633"/>
      <point x="467" y="633" type="curve" smooth="yes"/>
      <point x="388" y="633"/>
      <point x="329" y="606"/>
      <point x="278" y="555" type="curve" smooth="yes"/>
      <point x="206" y="482"/>
      <point x="161" y="369"/>
      <point x="161" y="261" type="curve" smooth="yes"/>
      <point x="161" y="109"/>
      <point x="248" y="11"/>
      <point x="387" y="11" type="curve" smooth="yes"/>
      <point x="565" y="11"/>
      <point x="679" y="176"/>
    </contour>
  </outline>
</glyph>
<glyph name="T" format="1">
  <advance width="630"/>
  <unicode hex="0054"/>
  <outline>
    <contour>
      <point x="734" y="674" type="curve" smooth="yes"/>
      <point x="723" y="638"/>
      <point x="706" y="551"/>
      <point x="699" y="504" type="curve" smooth="yes"/>
      <point x="696" y="495"/>
      <point x="676" y="494"/>
      <point x="675" y="504" type="curve" smooth="yes"/>
      <point x="675" y="520"/>
      <point x="675" y="535"/>
      <point x="674" y="548" type="curve" smooth="yes"/>
      <point x="672" y="561"/>
      <point x="670" y="573"/>
      <point x="665" y="583" type="curve" smooth="yes"/>
      <point x="656" y="602"/>
      <point x="637" y="612"/>
      <point x="597" y="612" type="curve" smooth="yes"/>
      <point x="468" y="612" type="line" smooth="yes"/>
      <point x="460" y="611"/>
      <point x="453" y="604"/>
      <point x="451" y="596" type="curve" smooth="yes"/>
      <point x="349" y="112" type="line" smooth="yes"/>
      <point x="336" y="49"/>
      <point x="346" y="31"/>
      <point x="398" y="27" type="curve" smooth="yes"/>
      <point x="409" y="26"/>
      <point x="424" y="26"/>
      <point x="439" y="26" type="curve" smooth="yes"/>
      <point x="444" y="26"/>
      <point x="447" y="19"/>
      <point x="446" y="13" type="curve" smooth="yes"/>
      <point x="445" y="5"/>
      <point x="439" y="-2"/>
      <point x="434" y="-2" type="curve" smooth="yes"/>
      <point x="361" y="0"/>
      <point x="214" y="0"/>
      <point x="138" y="-2" type="curve" smooth="yes"/>
      <point x="125" y="-2"/>
      <point x="133" y="26"/>
      <point x="146" y="26" type="curve" smooth="yes"/>
      <point x="160" y="26"/>
      <point x="168" y="26"/>
      <point x="178" y="27" type="curve" smooth="yes"/>
      <point x="231" y="30"/>
      <point x="244" y="48"/>
      <point x="258" y="113" type="curve" smooth="yes"/>
      <point x="362" y="591" type="line" smooth="yes"/>
      <point x="366" y="611"/>
      <point x="353" y="612"/>
      <point x="349" y="612" type="curve" smooth="yes"/>
      <point x="254" y="612" type="line" smooth="yes"/>
      <point x="204" y="612"/>
      <point x="174" y="608"/>
      <point x="150" y="589" type="curve" smooth="yes"/>
      <point x="125" y="569"/>
      <point x="114" y="547"/>
      <point x="94" y="502" type="curve" smooth="yes"/>
      <point x="93" y="499"/>
      <point x="86" y="494"/>
      <point x="80" y="495" type="curve" smooth="yes"/>
      <point x="74" y="497"/>
      <point x="70" y="503"/>
      <point x="72" y="507" type="curve" smooth="yes"/>
      <point x="83" y="549"/>
      <point x="103" y="634"/>
      <point x="108" y="674" type="curve" smooth="yes"/>
      <point x="109" y="677"/>
      <point x="114" y="679"/>
      <point x="120" y="679" type="curve" smooth="yes"/>
      <point x="123" y="679"/>
      <point x="129" y="679"/>
      <point x="130" y="674" type="curve" smooth="yes"/>
      <point x="148" y="651"/>
      <point x="160" y="646"/>
      <point x="200" y="646" type="curve" smooth="yes"/>
      <point x="599" y="646" type="line" smooth="yes"/>
      <point x="672" y="646"/>
      <point x="686" y="650"/>
      <point x="712" y="675" type="curve" smooth="yes"/>
      <point x="714" y="678"/>
      <point x="720" y="680"/>
      <point x="724" y="680" type="curve" smooth="yes"/>
      <point x="729" y="680"/>
      <point x="735" y="677"/>
    </contour>
  </outline>
</glyph>
<glyph name="W" format="1">
  <advance width="892"/>
  <unicode hex="0057"/>
  <outline>
    <contour>
      <point x="1015" y="635" type="curve" smooth="yes"/>
      <point x="1014" y="628"/>
      <point x="1010" y="622"/>
      <point x="1006" y="622" type="curve" smooth="yes"/>
      <point x="973" y="614"/>
      <point x="947" y="593"/>
      <point x="906" y="536" type="curve" smooth="yes"/>
      <point x="518" y="-3" type="line" smooth="yes"/>
      <point x="515" y="-7"/>
      <point x="509" y="-15"/>
      <point x="497" y="-15" type="curve" smooth="yes"/>
      <point x="491" y="-15"/>
      <point x="481" y="-16"/>
      <point x="477" y="-14" type="curve" smooth="yes"/>
      <point x="472" y="-12"/>
      <point x="465" y="-10"/>
      <point x="465" y="-5" type="curve" smooth="yes"/>
      <point x="497" y="449" type="line" smooth="yes"/>
      <point x="497" y="454"/>
      <point x="497" y="467"/>
      <point x="487" y="457" type="curve" smooth="yes"/>
      <point x="127" y="-5" type="line" smooth="yes"/>
      <point x="125" y="-7"/>
      <point x="119" y="-15"/>
      <point x="112" y="-15" type="curve" smooth="yes"/>
      <point x="108" y="-16"/>
      <point x="94" y="-17"/>
      <point x="90" y="-16" type="curve" smooth="yes"/>
      <point x="84" y="-14"/>
      <point x="78" y="-12"/>
      <point x="79" y="-6" type="curve" smooth="yes"/>
      <point x="125" y="542" type="line" smooth="yes"/>
      <point x="126" y="549"/>
      <point x="126" y="555"/>
      <point x="126" y="561" type="curve" smooth="yes"/>
      <point x="126" y="611"/>
      <point x="109" y="617"/>
      <point x="89" y="618" type="curve" smooth="yes"/>
      <point x="80" y="618"/>
      <point x="64" y="619"/>
      <point x="55" y="621" type="curve" smooth="yes"/>
      <point x="48" y="621"/>
      <point x="44" y="627"/>
      <point x="46" y="636" type="curve" smooth="yes"/>
      <point x="47" y="641"/>
      <point x="52" y="647"/>
      <point x="58" y="647" type="curve" smooth="yes"/>
      <point x="114" y="645"/>
      <point x="232" y="645"/>
      <point x="297" y="647" type="curve" smooth="yes"/>
      <point x="304" y="648"/>
      <point x="307" y="640"/>
      <point x="306" y="633" type="curve" smooth="yes"/>
      <point x="305" y="627"/>
      <point x="299" y="620"/>
      <point x="295" y="620" type="curve" smooth="yes"/>
      <point x="227" y="612"/>
      <point x="219" y="600"/>
      <point x="211" y="525" type="curve" smooth="yes"/>
      <point x="170" y="130" type="line" smooth="yes"/>
      <point x="168" y="115"/>
      <point x="169" y="104"/>
      <point x="183" y="122" type="curve" smooth="yes"/>
      <point x="498" y="526" type="line"/>
      <point x="498" y="563" type="line" smooth="yes"/>
      <point x="498" y="610"/>
      <point x="486" y="618"/>
      <point x="423" y="620" type="curve" smooth="yes"/>
      <point x="412" y="619"/>
      <point x="417" y="647"/>
      <point x="425" y="647" type="curve" smooth="yes"/>
      <point x="485" y="645"/>
      <point x="610" y="645"/>
      <point x="675" y="647" type="curve" smooth="yes"/>
      <point x="686" y="647"/>
      <point x="677" y="620"/>
      <point x="670" y="620" type="curve" smooth="yes"/>
      <point x="595" y="612"/>
      <point x="593" y="607"/>
      <point x="588" y="538" type="curve" smooth="yes"/>
      <point x="559" y="130" type="line" smooth="yes"/>
      <point x="558" y="116"/>
      <point x="561" y="108"/>
      <point x="572" y="124" type="curve" smooth="yes"/>
      <point x="851" y="520" type="line" smooth="yes"/>
      <point x="868" y="544"/>
      <point x="902" y="601"/>
      <point x="855" y="616" type="curve" smooth="yes"/>
      <point x="841" y="620"/>
      <point x="826" y="620"/>
      <point x="812" y="620" type="curve" smooth="yes"/>
      <point x="806" y="620"/>
      <point x="802" y="628"/>
      <point x="803" y="634" type="curve" smooth="yes"/>
      <point x="805" y="643"/>
      <point x="811" y="647"/>
      <point x="815" y="647" type="curve" smooth="yes"/>
      <point x="856" y="646"/>
      <point x="944" y="643"/>
      <point x="1011" y="647" type="curve" smooth="yes"/>
      <point x="1017" y="647"/>
      <point x="1017" y="640"/>
    </contour>
  </outline>
</glyph>
<glyph name="X" format="1">
  <advance width="704"/>
  <unicode hex="0058"/>
  <outline>
    <contour>
      <point x="788" y="637" type="curve" smooth="yes"/>
      <point x="787" y="630"/>
      <point x="782" y="624"/>
      <point x="778" y="624" type="curve" smooth="yes"/>
      <point x="717" y="616"/>
      <point x="673" y="597"/>
      <point x="619" y="541" type="curve" smooth="yes"/>
      <point x="457" y="374" type="line" smooth="yes"/>
      <point x="453" y="371"/>
      <point x="452" y="362"/>
      <point x="454" y="358" type="curve" smooth="yes"/>
      <point x="591" y="105" type="line" smooth="yes"/>
      <point x="628" y="37"/>
      <point x="643" y="28"/>
      <point x="706" y="19" type="curve" smooth="yes"/>
      <point x="715" y="18"/>
      <point x="707" y="-2"/>
      <point x="702" y="-2" type="curve" smooth="yes"/>
      <point x="635" y="0"/>
      <point x="511" y="0"/>
      <point x="450" y="-2" type="curve" smooth="yes"/>
      <point x="436" y="-3"/>
      <point x="436" y="7"/>
      <point x="437" y="12" type="curve" smooth="yes"/>
      <point x="438" y="16"/>
      <point x="442" y="22"/>
      <point x="446" y="21" type="curve" smooth="yes"/>
      <point x="502" y="23"/>
      <point x="535" y="27"/>
      <point x="507" y="80" type="curve" smooth="yes"/>
      <point x="398" y="285" type="line" smooth="yes"/>
      <point x="392" y="294"/>
      <point x="385" y="302"/>
      <point x="377" y="293" type="curve" smooth="yes"/>
      <point x="199" y="114" type="line" smooth="yes"/>
      <point x="132" y="47"/>
      <point x="160" y="26"/>
      <point x="237" y="21" type="curve" smooth="yes"/>
      <point x="243" y="19"/>
      <point x="239" y="-3"/>
      <point x="232" y="-2" type="curve" smooth="yes"/>
      <point x="174" y="-1"/>
      <point x="64" y="2"/>
      <point x="-2" y="-1" type="curve" smooth="yes"/>
      <point x="-13" y="-2"/>
      <point x="-13" y="3"/>
      <point x="-12" y="9" type="curve" smooth="yes"/>
      <point x="-11" y="16"/>
      <point x="-8" y="22"/>
      <point x="-4" y="22" type="curve" smooth="yes"/>
      <point x="78" y="33"/>
      <point x="75" y="34"/>
      <point x="130" y="89" type="curve" smooth="yes"/>
      <point x="363" y="322" type="line" smooth="yes"/>
      <point x="367" y="328"/>
      <point x="369" y="333"/>
      <point x="367" y="342" type="curve" smooth="yes"/>
      <point x="244" y="568" type="line" smooth="yes"/>
      <point x="221" y="610"/>
      <point x="196" y="620"/>
      <point x="127" y="622" type="curve" smooth="yes"/>
      <point x="123" y="622"/>
      <point x="122" y="630"/>
      <point x="122" y="636" type="curve" smooth="yes"/>
      <point x="124" y="643"/>
      <point x="131" y="646"/>
      <point x="133" y="646" type="curve" smooth="yes"/>
      <point x="228" y="644"/>
      <point x="354" y="645"/>
      <point x="409" y="646" type="curve" smooth="yes"/>
      <point x="415" y="646"/>
      <point x="419" y="640"/>
      <point x="418" y="634" type="curve" smooth="yes"/>
      <point x="417" y="628"/>
      <point x="414" y="622"/>
      <point x="410" y="622" type="curve" smooth="yes"/>
      <point x="352" y="621"/>
      <point x="337" y="615"/>
      <point x="337" y="593" type="curve" smooth="yes"/>
      <point x="337" y="580"/>
      <point x="345" y="568"/>
      <point x="351" y="557" type="curve" smooth="yes"/>
      <point x="428" y="404" type="line" smooth="yes"/>
      <point x="433" y="395"/>
      <point x="436" y="399"/>
      <point x="444" y="405" type="curve" smooth="yes"/>
      <point x="582" y="548" type="line" smooth="yes"/>
      <point x="600" y="566"/>
      <point x="608" y="578"/>
      <point x="608" y="591" type="curve" smooth="yes"/>
      <point x="608" y="612"/>
      <point x="592" y="620"/>
      <point x="535" y="622" type="curve" smooth="yes"/>
      <point x="523" y="621"/>
      <point x="529" y="646"/>
      <point x="538" y="646" type="curve" smooth="yes"/>
      <point x="605" y="644"/>
      <point x="703" y="643"/>
      <point x="778" y="646" type="curve" smooth="yes"/>
      <point x="789" y="646"/>
      <point x="788" y="643"/>
    </contour>
  </outline>
</glyph>
<glyph name="bracketleft" format="1">
  <advance width="307"/>
  <unicode hex="005B"/>
  <outline>
    <contour>
      <point x="434" y="681" type="line"/>
      <point x="429" y="659" type="line"/>
      <point x="336" y="659" type="line" smooth="yes"/>
      <point x="309" y="659"/>
      <point x="301" y="651"/>
      <point x="295" y="622" type="curve" smooth="yes"/>
      <point x="138" y="-168" type="line" smooth="yes"/>
      <point x="136" y="-176"/>
      <point x="135" y="-183"/>
      <point x="135" y="-187" type="curve" smooth="yes"/>
      <point x="135" y="-200"/>
      <point x="146" y="-207"/>
      <point x="185" y="-207" type="curve" smooth="yes"/>
      <point x="257" y="-207" type="line"/>
      <point x="253" y="-228" type="line"/>
      <point x="59" y="-228" type="line"/>
      <point x="240" y="681" type="line"/>
    </contour>
  </outline>
</glyph>
<glyph name="backslash" format="1">
  <advance width="223"/>
  <unicode hex="005C"/>
  <outline>
    <contour>
      <point x="231" y="-16" type="line"/>
      <point x="163" y="-16" type="line"/>
      <point x="74" y="662" type="line"/>
      <point x="142" y="662" type="line"/>
    </contour>
  </outline>
</glyph>
<glyph name="bracketright" format="1">
  <advance width="307"/>
  <unicode hex="005D"/>
  <outline>
    <contour>
      <point x="335" y="681" type="line"/>
      <point x="153" y="-228" type="line"/>
      <point x="-41" y="-228" type="line"/>
      <point x="-37" y="-206" type="line"/>
      <point x="57" y="-206" type="line" smooth="yes"/>
      <point x="84" y="-206"/>
      <point x="93" y="-198"/>
      <point x="99" y="-168" type="curve" smooth="yes"/>
      <point x="256" y="621" type="line" smooth="yes"/>
      <point x="257" y="628"/>
      <point x="258" y="637"/>
      <point x="258" y="641" type="curve" smooth="yes"/>
      <point x="258" y="654"/>
      <point x="247" y="660"/>
      <point x="207" y="660" type="curve" smooth="yes"/>
      <point x="136" y="660" type="line"/>
      <point x="140" y="681" type="line"/>
    </contour>
  </outline>
</glyph>
<glyph name="grave" format="1">
  <advance width="339"/>
  <unicode hex="0060"/>
  <outline>
    <contour>
      <point x="313" y="499" type="line" smooth="yes"/>
      <point x="314" y="496"/>
      <point x="312" y="494"/>
      <point x="307" y="494" type="curve" smooth="yes"/>
      <point x="303" y="494"/>
      <point x="298" y="495"/>
      <point x="295" y="498" type="curve" smooth="yes"/>
      <point x="172" y="644" type="line" smooth="yes"/>
      <point x="165" y="653"/>
      <point x="172" y="657"/>
      <point x="178" y="657" type="curve" smooth="yes"/>
      <point x="252" y="657" type="line" smooth="yes"/>
      <point x="257" y="657"/>
      <point x="261" y="658"/>
      <point x="264" y="654" type="curve" smooth="yes"/>
      <point x="264" y="653"/>
      <point x="265" y="652"/>
      <point x="265" y="651" type="curve" smooth="yes"/>
    </contour>
  </outline>
</glyph>
<glyph name="f" format="1">
  <advance width="283"/>
  <unicode hex="0066"/>
  <outline>
    <contour>
      <point x="444" y="703" type="curve" smooth="yes"/>
      <point x="443" y="679"/>
      <point x="421" y="673"/>
      <point x="401" y="675" type="curve" smooth="yes"/>
      <point x="369" y="679"/>
      <point x="362" y="717"/>
      <point x="322" y="717" type="curve" smooth="yes"/>
      <point x="303" y="717"/>
      <point x="280" y="702"/>
      <point x="266" y="680" type="curve" smooth="yes"/>
      <point x="249" y="654"/>
      <point x="235" y="604"/>
      <point x="220" y="521" type="curve" smooth="yes"/>
      <point x="203" y="425" type="line" smooth="yes"/>
      <point x="203" y="421"/>
      <point x="205" y="418"/>
      <point x="210" y="417" type="curve" smooth="yes"/>
      <point x="273" y="417" type="line" smooth="yes"/>
      <point x="279" y="417"/>
      <point x="278" y="408"/>
      <point x="276" y="398" type="curve" smooth="yes"/>
      <point x="272" y="387"/>
      <point x="266" y="378"/>
      <point x="262" y="378" type="curve" smooth="yes"/>
      <point x="201" y="378" type="line" smooth="yes"/>
      <point x="196" y="377"/>
      <point x="196" y="376"/>
      <point x="193" y="371" type="curve" smooth="yes"/>
      <point x="148" y="111" type="line" smooth="yes"/>
      <point x="128" y="-7"/>
      <point x="102" y="-162"/>
      <point x="-3" y="-238" type="curve" smooth="yes"/>
      <point x="-33" y="-260"/>
      <point x="-66" y="-274"/>
      <point x="-102" y="-274" type="curve" smooth="yes"/>
      <point x="-145" y="-274"/>
      <point x="-183" y="-245"/>
      <point x="-178" y="-219" type="curve" smooth="yes"/>
      <point x="-173" y="-189"/>
      <point x="-155" y="-189"/>
      <point x="-137" y="-191" type="curve" smooth="yes"/>
      <point x="-126" y="-192"/>
      <point x="-118" y="-200"/>
      <point x="-111" y="-206" type="curve" smooth="yes"/>
      <point x="-97" y="-221"/>
      <point x="-84" y="-237"/>
      <point x="-61" y="-237" type="curve" smooth="yes"/>
      <point x="-31" y="-237"/>
      <point x="1" y="-212"/>
      <point x="18" y="-179" type="curve" smooth="yes"/>
      <point x="27" y="-162"/>
      <point x="34" y="-135"/>
      <point x="41" y="-102" type="curve" smooth="yes"/>
      <point x="49" y="-68"/>
      <point x="57" y="-28"/>
      <point x="65" y="16" type="curve" smooth="yes"/>
      <point x="88" y="133"/>
      <point x="106" y="252"/>
      <point x="125" y="365" type="curve" smooth="yes"/>
      <point x="126" y="370"/>
      <point x="126" y="378"/>
      <point x="120" y="378" type="curve" smooth="yes"/>
      <point x="67" y="378" type="line" smooth="yes"/>
      <point x="62" y="377"/>
      <point x="62" y="383"/>
      <point x="63" y="388" type="curve" smooth="yes"/>
      <point x="64" y="396"/>
      <point x="68" y="402"/>
      <point x="72" y="402" type="curve" smooth="yes"/>
      <point x="87" y="404"/>
      <point x="97" y="405"/>
      <point x="107" y="408" type="curve" smooth="yes"/>
      <point x="115" y="410"/>
      <point x="123" y="413"/>
      <point x="134" y="416" type="curve"/>
      <point x="141" y="454"/>
      <point x="154" y="516"/>
      <point x="168" y="557" type="curve" smooth="yes"/>
      <point x="188" y="617"/>
      <point x="206" y="653"/>
      <point x="233" y="685" type="curve" smooth="yes"/>
      <point x="270" y="731"/>
      <point x="322" y="758"/>
      <point x="369" y="758" type="curve" smooth="yes"/>
      <point x="409" y="758"/>
      <point x="445" y="732"/>
    </contour>
  </outline>
</glyph>
<glyph name="i" format="1">
  <advance width="255"/>
  <unicode hex="0069"/>
  <outline>
    <contour>
      <point x="239" y="588" type="curve" smooth="yes"/>
      <point x="234" y="553"/>
      <point x="215" y="526"/>
      <point x="192" y="526" type="curve" smooth="yes"/>
      <point x="160" y="526"/>
      <point x="165" y="568"/>
      <point x="170" y="589" type="curve" smooth="yes"/>
      <point x="177" y="620"/>
      <point x="195" y="644"/>
      <point x="216" y="644" type="curve" smooth="yes"/>
      <point x="245" y="643"/>
      <point x="242" y="609"/>
    </contour>
    <contour>
      <point x="222" y="88" type="curve" smooth="yes"/>
      <point x="200" y="59"/>
      <point x="133" y="-11"/>
      <point x="94" y="-11" type="curve" smooth="yes"/>
      <point x="53" y="-10"/>
      <point x="65" y="47"/>
      <point x="69" y="67" type="curve" smooth="yes"/>
      <point x="122" y="321" type="line" smooth="yes"/>
      <point x="123" y="327"/>
      <point x="132" y="355"/>
      <point x="123" y="357" type="curve" smooth="yes"/>
      <point x="118" y="358"/>
      <point x="105" y="348"/>
      <point x="93" y="335" type="curve" smooth="yes"/>
      <point x="82" y="323"/>
      <point x="71" y="310"/>
      <point x="67" y="307" type="curve" smooth="yes"/>
      <point x="61" y="299"/>
      <point x="48" y="319"/>
      <point x="56" y="329" type="curve" smooth="yes"/>
      <point x="109" y="392"/>
      <point x="157" y="429"/>
      <point x="181" y="429" type="curve" smooth="yes"/>
      <point x="212" y="429"/>
      <point x="202" y="386"/>
      <point x="198" y="368" type="curve" smooth="yes"/>
      <point x="139" y="78" type="line" smooth="yes"/>
      <point x="136" y="62"/>
      <point x="131" y="50"/>
      <point x="146" y="51" type="curve" smooth="yes"/>
      <point x="156" y="51"/>
      <point x="196" y="96"/>
      <point x="207" y="109" type="curve" smooth="yes"/>
      <point x="211" y="115"/>
      <point x="216" y="114"/>
      <point x="220" y="107" type="curve" smooth="yes"/>
      <point x="224" y="99"/>
      <point x="225" y="91"/>
    </contour>
  </outline>
</glyph>
<glyph name="j" format="1">
  <advance width="245"/>
  <unicode hex="006A"/>
  <outline>
    <contour>
      <point x="259" y="585" type="curve" smooth="yes"/>
      <point x="253" y="552"/>
      <point x="240" y="528"/>
      <point x="213" y="528" type="curve" smooth="yes"/>
      <point x="182" y="529"/>
      <point x="183" y="568"/>
      <point x="187" y="590" type="curve" smooth="yes"/>
      <point x="193" y="624"/>
      <point x="208" y="646"/>
      <point x="233" y="647" type="curve" smooth="yes"/>
      <point x="272" y="648"/>
      <point x="263" y="606"/>
    </contour>
    <contour>
      <point x="207" y="341" type="curve" smooth="yes"/>
      <point x="126" y="3" type="line" smooth="yes"/>
      <point x="108" y="-74"/>
      <point x="87" y="-132"/>
      <point x="45" y="-189" type="curve" smooth="yes"/>
      <point x="13" y="-234"/>
      <point x="-27" y="-272"/>
      <point x="-84" y="-272" type="curve" smooth="yes"/>
      <point x="-125" y="-272"/>
      <point x="-147" y="-242"/>
      <point x="-145" y="-220" type="curve" smooth="yes"/>
      <point x="-143" y="-200"/>
      <point x="-131" y="-188"/>
      <point x="-111" y="-191" type="curve" smooth="yes"/>
      <point x="-98" y="-193"/>
      <point x="-89" y="-201"/>
      <point x="-82" y="-210" type="curve" smooth="yes"/>
      <point x="-76" y="-217"/>
      <point x="-70" y="-227"/>
      <point x="-63" y="-232" type="curve" smooth="yes"/>
      <point x="-16" y="-265"/>
      <point x="11" y="-204"/>
      <point x="29" y="-136" type="curve" smooth="yes"/>
      <point x="38" y="-104"/>
      <point x="40" y="-85"/>
      <point x="46" y="-60" type="curve" smooth="yes"/>
      <point x="138" y="330" type="line" smooth="yes"/>
      <point x="140" y="337"/>
      <point x="142" y="347"/>
      <point x="134" y="350" type="curve" smooth="yes"/>
      <point x="130" y="352"/>
      <point x="118" y="343"/>
      <point x="106" y="332" type="curve" smooth="yes"/>
      <point x="96" y="322"/>
      <point x="86" y="311"/>
      <point x="82" y="307" type="curve" smooth="yes"/>
      <point x="72" y="299"/>
      <point x="61" y="317"/>
      <point x="68" y="322" type="curve" smooth="yes"/>
      <point x="119" y="387"/>
      <point x="166" y="421"/>
      <point x="191" y="421" type="curve" smooth="yes"/>
      <point x="227" y="421"/>
      <point x="212" y="361"/>
    </contour>
  </outline>
</glyph>
<glyph name="l" format="1">
  <advance width="256"/>
  <unicode hex="006C"/>
  <outline>
    <contour>
      <point x="264" y="724" type="curve" smooth="yes"/>
      <point x="132" y="61" type="line" smooth="yes"/>
      <point x="128" y="43"/>
      <point x="128" y="35"/>
      <point x="137" y="35" type="curve" smooth="yes"/>
      <point x="147" y="35"/>
      <point x="170" y="52"/>
      <point x="209" y="96" type="curve" smooth="yes"/>
      <point x="210" y="99"/>
      <point x="218" y="100"/>
      <point x="222" y="96" type="curve" smooth="yes"/>
      <point x="227" y="92"/>
      <point x="225" y="85"/>
      <point x="223" y="80" type="curve" smooth="yes"/>
      <point x="173" y="21"/>
      <point x="129" y="-13"/>
      <point x="99" y="-13" type="curve" smooth="yes"/>
      <point x="56" y="-13"/>
      <point x="60" y="34"/>
      <point x="68" y="74" type="curve" smooth="yes"/>
      <point x="187" y="672" type="line" smooth="yes"/>
      <point x="191" y="691"/>
      <point x="186" y="691"/>
      <point x="181" y="691" type="curve" smooth="yes"/>
      <point x="177" y="691"/>
      <point x="158" y="681"/>
      <point x="126" y="663" type="curve" smooth="yes"/>
      <point x="119" y="661"/>
      <point x="111" y="661"/>
      <point x="109" y="669" type="curve" smooth="yes"/>
      <point x="107" y="676"/>
      <point x="110" y="683"/>
      <point x="115" y="684" type="curve" smooth="yes"/>
      <point x="212" y="741" type="line" smooth="yes"/>
      <point x="238" y="756"/>
      <point x="274" y="776"/>
    </contour>
  </outline>
</glyph>
<glyph name="p" format="1">
  <advance width="445"/>
  <unicode hex="0070"/>
  <outline>
    <contour>
      <point x="414" y="276" type="curve" smooth="yes"/>
      <point x="414" y="142"/>
      <point x="284" y="-50"/>
      <point x="135" y="-5" type="curve" smooth="yes"/>
      <point x="131" y="-3"/>
      <point x="129" y="-11"/>
      <point x="129" y="-14" type="curve" smooth="yes"/>
      <point x="117" y="-67"/>
      <point x="104" y="-123"/>
      <point x="93" y="-177" type="curve" smooth="yes"/>
      <point x="80" y="-245"/>
      <point x="98" y="-248"/>
      <point x="171" y="-251" type="curve" smooth="yes"/>
      <point x="179" y="-251"/>
      <point x="177" y="-275"/>
      <point x="162" y="-274" type="curve" smooth="yes"/>
      <point x="94" y="-271"/>
      <point x="-14" y="-272"/>
      <point x="-62" y="-274" type="curve" smooth="yes"/>
      <point x="-69" y="-274"/>
      <point x="-66" y="-260"/>
      <point x="-63" y="-255" type="curve" smooth="yes"/>
      <point x="-59" y="-249"/>
      <point x="-48" y="-250"/>
      <point x="-40" y="-249" type="curve" smooth="yes"/>
      <point x="15" y="-242"/>
      <point x="19" y="-216"/>
      <point x="27" y="-175" type="curve" smooth="yes"/>
      <point x="59" y="-13"/>
      <point x="93" y="146"/>
      <point x="127" y="309" type="curve" smooth="yes"/>
      <point x="128" y="314"/>
      <point x="137" y="352"/>
      <point x="129" y="352" type="curve" smooth="yes"/>
      <point x="119" y="352"/>
      <point x="102" y="336"/>
      <point x="88" y="320" type="curve" smooth="yes"/>
      <point x="73" y="303"/>
      <point x="59" y="285"/>
      <point x="53" y="278" type="curve" smooth="yes"/>
      <point x="48" y="271"/>
      <point x="30" y="283"/>
      <point x="40" y="298" type="curve" smooth="yes"/>
      <point x="92" y="375"/>
      <point x="160" y="429"/>
      <point x="187" y="429" type="curve" smooth="yes"/>
      <point x="201" y="429"/>
      <point x="206" y="418"/>
      <point x="206" y="398" type="curve" smooth="yes"/>
      <point x="206" y="366"/>
      <point x="199" y="333"/>
      <point x="193" y="302" type="curve" smooth="yes"/>
      <point x="187" y="269"/>
      <point x="193" y="281"/>
      <point x="200" y="292" type="curve" smooth="yes"/>
      <point x="230" y="334"/>
      <point x="285" y="428"/>
      <point x="344" y="428" type="curve" smooth="yes"/>
      <point x="394" y="428"/>
      <point x="414" y="335"/>
    </contour>
    <contour>
      <point x="346" y="272" type="curve" smooth="yes"/>
      <point x="346" y="331"/>
      <point x="330" y="373"/>
      <point x="307" y="373" type="curve" smooth="yes"/>
      <point x="293" y="373"/>
      <point x="271" y="347"/>
      <point x="246" y="314" type="curve" smooth="yes"/>
      <point x="222" y="282"/>
      <point x="196" y="244"/>
      <point x="176" y="213" type="curve"/>
      <point x="143" y="50" type="line" smooth="yes"/>
      <point x="143" y="41"/>
      <point x="143" y="35"/>
      <point x="149" y="31" type="curve" smooth="yes"/>
      <point x="158" y="25"/>
      <point x="173" y="17"/>
      <point x="185" y="17" type="curve" smooth="yes"/>
      <point x="267" y="17"/>
      <point x="346" y="140"/>
    </contour>
  </outline>
</glyph>
<glyph name="x" format="1">
  <advance width="504"/>
  <unicode hex="0078"/>
  <outline>
    <contour>
      <point x="505" y="374" type="curve" smooth="yes"/>
      <point x="505" y="358"/>
      <point x="503" y="351"/>
      <point x="496" y="326" type="curve" smooth="yes"/>
      <point x="490" y="303"/>
      <point x="482" y="313"/>
      <point x="479" y="326" type="curve" smooth="yes"/>
      <point x="474" y="352"/>
      <point x="459" y="367"/>
      <point x="437" y="367" type="curve" smooth="yes"/>
      <point x="411" y="367"/>
      <point x="386" y="347"/>
      <point x="355" y="304" type="curve" smooth="yes"/>
      <point x="305" y="234" type="line" smooth="yes"/>
      <point x="299" y="227"/>
      <point x="301" y="220"/>
      <point x="302" y="218" type="curve" smooth="yes"/>
      <point x="340" y="116" type="line" smooth="yes"/>
      <point x="359" y="65"/>
      <point x="369" y="52"/>
      <point x="382" y="52" type="curve" smooth="yes"/>
      <point x="404" y="53"/>
      <point x="421" y="81"/>
      <point x="440" y="121" type="curve" smooth="yes"/>
      <point x="444" y="130"/>
      <point x="450" y="131"/>
      <point x="454" y="127" type="curve" smooth="yes"/>
      <point x="458" y="124"/>
      <point x="460" y="116"/>
      <point x="460" y="107" type="curve" smooth="yes"/>
      <point x="414" y="3"/>
      <point x="385" y="-12"/>
      <point x="353" y="-12" type="curve" smooth="yes"/>
      <point x="324" y="-12"/>
      <point x="318" y="0"/>
      <point x="293" y="63" type="curve" smooth="yes"/>
      <point x="256" y="156" type="line" smooth="yes"/>
      <point x="252" y="165"/>
      <point x="248" y="160"/>
      <point x="244" y="155" type="curve" smooth="yes"/>
      <point x="208" y="111" type="line" smooth="yes"/>
      <point x="180" y="77"/>
      <point x="105" y="-12"/>
      <point x="56" y="-12" type="curve" smooth="yes"/>
      <point x="-4" y="-12"/>
      <point x="37" y="89"/>
      <point x="45" y="111" type="curve" smooth="yes"/>
      <point x="51" y="126"/>
      <point x="64" y="149"/>
      <point x="68" y="119" type="curve" smooth="yes"/>
      <point x="70" y="106"/>
      <point x="71" y="92"/>
      <point x="76" y="80" type="curve" smooth="yes"/>
      <point x="101" y="22"/>
      <point x="180" y="117"/>
      <point x="195" y="135" type="curve" smooth="yes"/>
      <point x="238" y="189" type="line" smooth="yes"/>
      <point x="240" y="194"/>
      <point x="242" y="195"/>
      <point x="239" y="203" type="curve" smooth="yes"/>
      <point x="190" y="326" type="line" smooth="yes"/>
      <point x="176" y="362"/>
      <point x="168" y="373"/>
      <point x="155" y="373" type="curve" smooth="yes"/>
      <point x="137" y="373"/>
      <point x="124" y="357"/>
      <point x="87" y="295" type="curve" smooth="yes"/>
      <point x="81" y="284"/>
      <point x="75" y="286"/>
      <point x="71" y="289" type="curve" smooth="yes"/>
      <point x="66" y="293"/>
      <point x="65" y="302"/>
      <point x="68" y="307" type="curve" smooth="yes"/>
      <point x="122" y="399"/>
      <point x="148" y="429"/>
      <point x="182" y="429" type="curve" smooth="yes"/>
      <point x="212" y="429"/>
      <point x="227" y="409"/>
      <point x="250" y="349" type="curve" smooth="yes"/>
      <point x="283" y="262" type="line" smooth="yes"/>
      <point x="286" y="253"/>
      <point x="294" y="262"/>
      <point x="299" y="269" type="curve" smooth="yes"/>
      <point x="334" y="317"/>
      <point x="361" y="358"/>
      <point x="402" y="400" type="curve" smooth="yes"/>
      <point x="440" y="438"/>
      <point x="505" y="443"/>
    </contour>
  </outline>
</glyph>
<glyph name="copyright" format="1">
  <advance width="773"/>
  <unicode hex="00A9"/>
  <outline>
    <contour>
      <point x="812" y="342" type="curve" smooth="yes"/>
      <point x="812" y="143"/>
      <point x="651" y="-19"/>
      <point x="454" y="-19" type="curve" smooth="yes"/>
      <point x="257" y="-19"/>
      <point x="97" y="143"/>
      <point x="97" y="342" type="curve" smooth="yes"/>
      <point x="97" y="541"/>
      <point x="257" y="703"/>
      <point x="454" y="703" type="curve" smooth="yes"/>
      <point x="651" y="703"/>
      <point x="812" y="541"/>
    </contour>
    <contour>
      <point x="774" y="342" type="curve" smooth="yes"/>
      <point x="774" y="520"/>
      <point x="631" y="664"/>
      <point x="454" y="664" type="curve" smooth="yes"/>
      <point x="277" y="664"/>
      <point x="135" y="520"/>
      <point x="135" y="342" type="curve" smooth="yes"/>
      <point x="135" y="164"/>
      <point x="277" y="20"/>
      <point x="454" y="20" type="curve" smooth="yes"/>
      <point x="631" y="20"/>
      <point x="774" y="164"/>
    </contour>
    <contour>
      <point x="648" y="211" type="curve" smooth="yes"/>
      <point x="598" y="143"/>
      <point x="537" y="111"/>
      <point x="456" y="111" type="curve" smooth="yes"/>
      <point x="323" y="111"/>
      <point x="221" y="210"/>
      <point x="221" y="339" type="curve" smooth="yes"/>
      <point x="221" y="475"/>
      <point x="331" y="576"/>
      <point x="474" y="576" type="curve" smooth="yes"/>
      <point x="507" y="576"/>
      <point x="517" y="574"/>
      <point x="568" y="557" type="curve" smooth="yes"/>
      <point x="577" y="554"/>
      <point x="581" y="553"/>
      <point x="585" y="553" type="curve" smooth="yes"/>
      <point x="594" y="553"/>
      <point x="599" y="556"/>
      <point x="607" y="576" type="curve"/>
      <point x="621" y="576" type="line" smooth="yes"/>
      <point x="625" y="576"/>
      <point x="632" y="575"/>
      <point x="633" y="567" type="curve" smooth="yes"/>
      <point x="642" y="449" type="line" smooth="yes"/>
      <point x="643" y="443"/>
      <point x="643" y="427"/>
      <point x="634" y="427" type="curve" smooth="yes"/>
      <point x="622" y="427" type="line" smooth="yes"/>
      <point x="612" y="427"/>
      <point x="613" y="440"/>
      <point x="610" y="446" type="curve" smooth="yes"/>
      <point x="584" y="513"/>
      <point x="536" y="546"/>
      <point x="468" y="546" type="curve" smooth="yes"/>
      <point x="373" y="546"/>
      <point x="304" y="473"/>
      <point x="304" y="353" type="curve" smooth="yes"/>
      <point x="304" y="222"/>
      <point x="371" y="150"/>
      <point x="473" y="150" type="curve" smooth="yes"/>
      <point x="534" y="150"/>
      <point x="582" y="172"/>
      <point x="621" y="224" type="curve" smooth="yes"/>
      <point x="625" y="229"/>
      <point x="632" y="233"/>
      <point x="638" y="230" type="curve" smooth="yes"/>
      <point x="644" y="226" type="line" smooth="yes"/>
      <point x="650" y="222"/>
      <point x="652" y="216"/>
    </contour>
  </outline>
</glyph>
<glyph name="ordfeminine" format="1">
  <advance width="265"/>
  <unicode hex="00AA"/>
  <outline>
    <contour>
      <point x="333" y="662" type="line"/>
      <point x="293" y="478" type="line" smooth="yes"/>
      <point x="291" y="467"/>
      <point x="288" y="456"/>
      <point x="288" y="445" type="curve" smooth="yes"/>
      <point x="288" y="439"/>
      <point x="290" y="439"/>
      <point x="292" y="439" type="curve" smooth="yes"/>
      <point x="295" y="439"/>
      <point x="305" y="447"/>
      <point x="315" y="456" type="curve" smooth="yes"/>
      <point x="321" y="462"/>
      <point x="327" y="469"/>
      <point x="331" y="473" type="curve"/>
      <point x="331" y="453" type="line" smooth="yes"/>
      <point x="329" y="450"/>
      <point x="327" y="449"/>
      <point x="326" y="448" type="curve" smooth="yes"/>
      <point x="325" y="447"/>
      <point x="324" y="446"/>
      <point x="324" y="445" type="curve" smooth="yes"/>
      <point x="295" y="415"/>
      <point x="274" y="399"/>
      <point x="261" y="399" type="curve" smooth="yes"/>
      <point x="249" y="399"/>
      <point x="240" y="412"/>
      <point x="240" y="429" type="curve" smooth="yes"/>
      <point x="240" y="439"/>
      <point x="242" y="455"/>
      <point x="249" y="483" type="curve"/>
      <point x="190" y="424"/>
      <point x="157" y="399"/>
      <point x="141" y="399" type="curve" smooth="yes"/>
      <point x="119" y="399"/>
      <point x="100" y="431"/>
      <point x="100" y="464" type="curve" smooth="yes"/>
      <point x="100" y="526"/>
      <point x="152" y="599"/>
      <point x="221" y="636" type="curve" smooth="yes"/>
      <point x="250" y="652"/>
      <point x="288" y="662"/>
      <point x="315" y="662" type="curve" smooth="yes"/>
    </contour>
    <contour>
      <point x="280" y="627" type="line"/>
      <point x="247" y="624"/>
      <point x="226" y="618"/>
      <point x="208" y="606" type="curve" smooth="yes"/>
      <point x="171" y="582"/>
      <point x="145" y="530"/>
      <point x="145" y="476" type="curve" smooth="yes"/>
      <point x="145" y="451"/>
      <point x="154" y="434"/>
      <point x="164" y="434" type="curve" smooth="yes"/>
      <point x="168" y="434"/>
      <point x="176" y="439"/>
      <point x="190" y="450" type="curve" smooth="yes"/>
      <point x="203" y="461"/>
      <point x="221" y="479"/>
      <point x="248" y="501" type="curve" smooth="yes"/>
      <point x="254" y="506" type="line"/>
    </contour>
  </outline>
</glyph>
<glyph name="guillemotleft" format="1">
  <advance width="446"/>
  <unicode hex="00AB"/>
  <outline>
    <contour>
      <point x="453" y="398" type="line"/>
      <point x="343" y="227" type="line"/>
      <point x="371" y="60" type="line"/>
      <point x="345" y="60" type="line"/>
      <point x="267" y="228" type="line"/>
      <point x="426" y="398" type="line"/>
    </contour>
    <contour>
      <point x="317" y="421" type="line"/>
      <point x="170" y="227" type="line"/>
      <point x="232" y="35" type="line"/>
      <point x="205" y="35" type="line"/>
      <point x="95" y="228" type="line"/>
      <point x="292" y="421" type="line"/>
    </contour>
  </outline>
</glyph>
<glyph name="degree" format="1">
  <advance width="403"/>
  <unicode hex="00B0"/>
  <outline>
    <contour>
      <point x="439" y="506" type="curve" smooth="yes"/>
      <point x="439" y="419"/>
      <point x="370" y="349"/>
      <point x="285" y="349" type="curve" smooth="yes"/>
      <point x="201" y="349"/>
      <point x="131" y="419"/>
      <point x="131" y="506" type="curve" smooth="yes"/>
      <point x="131" y="593"/>
      <point x="201" y="663"/>
      <point x="285" y="663" type="curve" smooth="yes"/>
      <point x="370" y="663"/>
      <point x="439" y="593"/>
    </contour>
    <contour>
      <point x="393" y="506" type="curve" smooth="yes"/>
      <point x="393" y="567"/>
      <point x="345" y="617"/>
      <point x="285" y="617" type="curve" smooth="yes"/>
      <point x="225" y="617"/>
      <point x="176" y="567"/>
      <point x="176" y="506" type="curve" smooth="yes"/>
      <point x="176" y="445"/>
      <point x="225" y="396"/>
      <point x="285" y="396" type="curve" smooth="yes"/>
      <point x="345" y="396"/>
      <point x="393" y="445"/>
    </contour>
  </outline>
</glyph>
<glyph name="cedilla" format="1">
  <advance width="339"/>
  <unicode hex="00B8"/>
  <outline>
    <contour>
      <point x="207" y="-96" type="curve" smooth="yes"/>
      <point x="207" y="-160"/>
      <point x="154" y="-198"/>
      <point x="69" y="-198" type="curve" smooth="yes"/>
      <point x="63" y="-198"/>
      <point x="61" y="-198"/>
      <point x="47" y="-197" type="curve" smooth="yes"/>
      <point x="43" y="-195"/>
      <point x="36" y="-191"/>
      <point x="39" y="-185" type="curve" smooth="yes"/>
      <point x="39" y="-180"/>
      <point x="43" y="-177"/>
      <point x="46" y="-176" type="curve" smooth="yes"/>
      <point x="58" y="-177"/>
      <point x="61" y="-177"/>
      <point x="67" y="-177" type="curve" smooth="yes"/>
      <point x="124" y="-177"/>
      <point x="156" y="-155"/>
      <point x="156" y="-117" type="curve" smooth="yes"/>
      <point x="156" y="-96"/>
      <point x="144" y="-83"/>
      <point x="114" y="-80" type="curve" smooth="yes"/>
      <point x="107" y="-79"/>
      <point x="106" y="-75"/>
      <point x="108" y="-69" type="curve" smooth="yes"/>
      <point x="141" y="-4" type="line"/>
      <point x="162" y="-4" type="line"/>
      <point x="151" y="-26" type="line"/>
      <point x="186" y="-31"/>
      <point x="207" y="-60"/>
    </contour>
  </outline>
</glyph>
<glyph name="onesuperior" format="1">
  <advance width="318"/>
  <unicode hex="00B9"/>
  <outline>
    <contour>
      <point x="327" y="644" type="curve" smooth="yes"/>
      <point x="262" y="363" type="line" smooth="yes"/>
      <point x="256" y="339"/>
      <point x="270" y="335"/>
      <point x="292" y="334" type="curve" smooth="yes"/>
      <point x="300" y="334"/>
      <point x="305" y="331"/>
      <point x="304" y="323" type="curve" smooth="yes"/>
      <point x="303" y="320"/>
      <point x="299" y="311"/>
      <point x="290" y="311" type="curve" smooth="yes"/>
      <point x="257" y="312"/>
      <point x="193" y="313"/>
      <point x="161" y="312" type="curve" smooth="yes"/>
      <point x="146" y="311"/>
      <point x="141" y="310"/>
      <point x="144" y="323" type="curve" smooth="yes"/>
      <point x="148" y="335"/>
      <point x="150" y="334"/>
      <point x="172" y="334" type="curve" smooth="yes"/>
      <point x="195" y="334"/>
      <point x="200" y="349"/>
      <point x="203" y="362" type="curve" smooth="yes"/>
      <point x="251" y="572" type="line" smooth="yes"/>
      <point x="253" y="588"/>
      <point x="244" y="586"/>
      <point x="239" y="583" type="curve" smooth="yes"/>
      <point x="211" y="566"/>
      <point x="194" y="558"/>
      <point x="167" y="549" type="curve" smooth="yes"/>
      <point x="157" y="546"/>
      <point x="155" y="548"/>
      <point x="157" y="555" type="curve" smooth="yes"/>
      <point x="161" y="572" type="line"/>
      <point x="211" y="590"/>
      <point x="253" y="617"/>
      <point x="286" y="652" type="curve" smooth="yes"/>
      <point x="289" y="655"/>
      <point x="293" y="663"/>
      <point x="302" y="662" type="curve" smooth="yes"/>
      <point x="319" y="662" type="line" smooth="yes"/>
      <point x="326" y="662"/>
      <point x="330" y="657"/>
    </contour>
  </outline>
</glyph>
<glyph name="Atilde" format="1">
  <advance width="693"/>
  <unicode hex="00C3"/>
  <outline>
    <contour>
      <point x="676" y="9" type="curve" smooth="yes"/>
      <point x="675" y="0"/>
      <point x="672" y="-2"/>
      <point x="662" y="-2" type="curve" smooth="yes"/>
      <point x="586" y="2"/>
      <point x="448" y="0"/>
      <point x="380" y="-2" type="curve" smooth="yes"/>
      <point x="370" y="-2"/>
      <point x="369" y="23"/>
      <point x="383" y="23" type="curve" smooth="yes"/>
      <point x="471" y="23"/>
      <point x="495" y="41"/>
      <point x="495" y="105" type="curve" smooth="yes"/>
      <point x="494" y="268" type="line" smooth="yes"/>
      <point x="494" y="271"/>
      <point x="486" y="279"/>
      <point x="480" y="279" type="curve" smooth="yes"/>
      <point x="283" y="279" type="line" smooth="yes"/>
      <point x="278" y="279"/>
      <point x="274" y="277"/>
      <point x="269" y="272" type="curve" smooth="yes"/>
      <point x="144" y="106" type="line" smooth="yes"/>
      <point x="132" y="90"/>
      <point x="125" y="75"/>
      <point x="125" y="64" type="curve" smooth="yes"/>
      <point x="125" y="30"/>
      <point x="158" y="26"/>
      <point x="182" y="25" type="curve" smooth="yes"/>
      <point x="192" y="24"/>
      <point x="200" y="25"/>
      <point x="208" y="25" type="curve" smooth="yes"/>
      <point x="221" y="25"/>
      <point x="218" y="-2"/>
      <point x="205" y="-2" type="curve" smooth="yes"/>
      <point x="149" y="0"/>
      <point x="29" y="0"/>
      <point x="-35" y="-2" type="curve" smooth="yes"/>
      <point x="-46" y="-2"/>
      <point x="-46" y="23"/>
      <point x="-28" y="23" type="curve" smooth="yes"/>
      <point x="24" y="33"/>
      <point x="46" y="47"/>
      <point x="99" y="116" type="curve" smooth="yes"/>
      <point x="515" y="657" type="line" smooth="yes"/>
      <point x="516" y="660"/>
      <point x="521" y="663"/>
      <point x="526" y="664" type="curve" smooth="yes"/>
      <point x="539" y="668"/>
      <point x="555" y="667"/>
      <point x="566" y="664" type="curve" smooth="yes"/>
      <point x="577" y="662"/>
      <point x="578" y="657"/>
      <point x="578" y="648" type="curve" smooth="yes"/>
      <point x="584" y="80" type="line" smooth="yes"/>
      <point x="584" y="37"/>
      <point x="608" y="29"/>
      <point x="631" y="26" type="curve" smooth="yes"/>
      <point x="640" y="25"/>
      <point x="650" y="26"/>
      <point x="659" y="26" type="curve" smooth="yes"/>
      <point x="661" y="26"/>
      <point x="664" y="26"/>
      <point x="666" y="26" type="curve" smooth="yes"/>
      <point x="673" y="25"/>
      <point x="678" y="18"/>
    </contour>
    <contour>
      <point x="496" y="339" type="curve" smooth="yes"/>
      <point x="496" y="393"/>
      <point x="496" y="498"/>
      <point x="496" y="546" type="curve" smooth="yes"/>
      <point x="496" y="565"/>
      <point x="484" y="561"/>
      <point x="479" y="554" type="curve" smooth="yes"/>
      <point x="321" y="339" type="line" smooth="yes"/>
      <point x="316" y="333"/>
      <point x="320" y="324"/>
      <point x="335" y="324" type="curve" smooth="yes"/>
      <point x="477" y="325" type="line" smooth="yes"/>
      <point x="490" y="325"/>
      <point x="496" y="333"/>
    </contour>
    <contour>
      <point x="721" y="841" type="curve" smooth="yes"/>
      <point x="721" y="772"/>
      <point x="681" y="719"/>
      <point x="628" y="719" type="curve" smooth="yes"/>
      <point x="561" y="719"/>
      <point x="507" y="789"/>
      <point x="468" y="789" type="curve" smooth="yes"/>
      <point x="443" y="789"/>
      <point x="432" y="776"/>
      <point x="423" y="728" type="curve" smooth="yes"/>
      <point x="422" y="722"/>
      <point x="419" y="720"/>
      <point x="411" y="720" type="curve" smooth="yes"/>
      <point x="404" y="720"/>
      <point x="402" y="724"/>
      <point x="403" y="734" type="curve" smooth="yes"/>
      <point x="410" y="813"/>
      <point x="443" y="855"/>
      <point x="497" y="855" type="curve" smooth="yes"/>
      <point x="559" y="855"/>
      <point x="618" y="785"/>
      <point x="657" y="785" type="curve" smooth="yes"/>
      <point x="680" y="785"/>
      <point x="694" y="801"/>
      <point x="701" y="844" type="curve" smooth="yes"/>
      <point x="702" y="852"/>
      <point x="704" y="854"/>
      <point x="712" y="854" type="curve" smooth="yes"/>
      <point x="721" y="854"/>
      <point x="721" y="848"/>
    </contour>
  </outline>
</glyph>
<glyph name="Ecircumflex" format="1">
  <advance width="662"/>
  <unicode hex="00CA"/>
  <outline>
    <contour>
      <point x="670" y="623" type="curve" smooth="yes"/>
      <point x="663" y="585"/>
      <point x="650" y="527"/>
      <point x="644" y="503" type="curve" smooth="yes"/>
      <point x="645" y="499"/>
      <point x="641" y="497"/>
      <point x="634" y="497" type="curve" smooth="yes"/>
      <point x="617" y="498"/>
      <point x="624" y="509"/>
      <point x="624" y="521" type="curve" smooth="yes"/>
      <point x="624" y="588"/>
      <point x="592" y="615"/>
      <point x="510" y="615" type="curve" smooth="yes"/>
      <point x="342" y="615" type="line" smooth="yes"/>
      <point x="330" y="615"/>
      <point x="320" y="614"/>
      <point x="317" y="601" type="curve" smooth="yes"/>
      <point x="266" y="358" type="line" smooth="yes"/>
      <point x="264" y="348"/>
      <point x="273" y="345"/>
      <point x="286" y="345" type="curve" smooth="yes"/>
      <point x="450" y="345" type="line" smooth="yes"/>
      <point x="510" y="345"/>
      <point x="535" y="360"/>
      <point x="560" y="413" type="curve" smooth="yes"/>
      <point x="562" y="420"/>
      <point x="586" y="420"/>
      <point x="581" y="409" type="curve" smooth="yes"/>
      <point x="570" y="365"/>
      <point x="552" y="274"/>
      <point x="543" y="228" type="curve" smooth="yes"/>
      <point x="543" y="222"/>
      <point x="521" y="209"/>
      <point x="521" y="244" type="curve" smooth="yes"/>
      <point x="521" y="296"/>
      <point x="498" y="311"/>
      <point x="414" y="311" type="curve" smooth="yes"/>
      <point x="277" y="311" type="line" smooth="yes"/>
      <point x="265" y="311"/>
      <point x="255" y="308"/>
      <point x="253" y="297" type="curve" smooth="yes"/>
      <point x="211" y="97" type="line" smooth="yes"/>
      <point x="197" y="29"/>
      <point x="257" y="31"/>
      <point x="309" y="31" type="curve" smooth="yes"/>
      <point x="379" y="31" type="line" smooth="yes"/>
      <point x="446" y="31"/>
      <point x="488" y="44"/>
      <point x="527" y="72" type="curve" smooth="yes"/>
      <point x="559" y="95"/>
      <point x="571" y="104"/>
      <point x="599" y="141" type="curve" smooth="yes"/>
      <point x="606" y="151"/>
      <point x="621" y="148"/>
      <point x="620" y="140" type="curve" smooth="yes"/>
      <point x="606" y="106"/>
      <point x="582" y="16"/>
      <point x="575" y="7" type="curve" smooth="yes"/>
      <point x="567" y="-1"/>
      <point x="563" y="-2"/>
      <point x="535" y="-2" type="curve" smooth="yes"/>
      <point x="398" y="0"/>
      <point x="170" y="1"/>
      <point x="12" y="-2" type="curve" smooth="yes"/>
      <point x="6" y="-2"/>
      <point x="1" y="6"/>
      <point x="2" y="13" type="curve" smooth="yes"/>
      <point x="4" y="22"/>
      <point x="10" y="29"/>
      <point x="17" y="29" type="curve" smooth="yes"/>
      <point x="28" y="30"/>
      <point x="42" y="28"/>
      <point x="50" y="29" type="curve" smooth="yes"/>
      <point x="98" y="33"/>
      <point x="112" y="50"/>
      <point x="125" y="113" type="curve" smooth="yes"/>
      <point x="213" y="532" type="line" smooth="yes"/>
      <point x="218" y="555"/>
      <point x="219" y="567"/>
      <point x="219" y="575" type="curve" smooth="yes"/>
      <point x="219" y="605"/>
      <point x="195" y="619"/>
      <point x="153" y="619" type="curve" smooth="yes"/>
      <point x="127" y="619" type="line" smooth="yes"/>
      <point x="119" y="620"/>
      <point x="117" y="626"/>
      <point x="118" y="633" type="curve" smooth="yes"/>
      <point x="120" y="642"/>
      <point x="129" y="646"/>
      <point x="137" y="646" type="curve" smooth="yes"/>
      <point x="648" y="646" type="line" smooth="yes"/>
      <point x="665" y="646"/>
      <point x="673" y="643"/>
    </contour>
    <contour>
      <point x="550" y="707" type="line" smooth="yes"/>
      <point x="551" y="701"/>
      <point x="551" y="697"/>
      <point x="545" y="697" type="curve" smooth="yes"/>
      <point x="539" y="697" type="line"/>
      <point x="460" y="792" type="line" smooth="yes"/>
      <point x="457" y="796"/>
      <point x="452" y="796"/>
      <point x="447" y="793" type="curve" smooth="yes"/>
      <point x="298" y="697" type="line"/>
      <point x="286" y="697" type="line" smooth="yes"/>
      <point x="282" y="698"/>
      <point x="283" y="701"/>
      <point x="286" y="704" type="curve" smooth="yes"/>
      <point x="432" y="851" type="line" smooth="yes"/>
      <point x="438" y="858"/>
      <point x="446" y="860"/>
      <point x="454" y="860" type="curve" smooth="yes"/>
      <point x="465" y="861"/>
      <point x="487" y="859"/>
      <point x="498" y="859" type="curve" smooth="yes"/>
      <point x="508" y="858"/>
      <point x="513" y="856"/>
      <point x="516" y="844" type="curve" smooth="yes"/>
    </contour>
  </outline>
</glyph>
<glyph name="Iacute" format="1">
  <advance width="356"/>
  <unicode hex="00CD"/>
  <outline>
    <contour>
      <point x="409" y="863" type="curve" smooth="yes"/>
      <point x="380" y="822"/>
      <point x="318" y="753"/>
      <point x="287" y="718" type="curve" smooth="yes"/>
      <point x="281" y="712"/>
      <point x="270" y="713"/>
      <point x="273" y="722" type="curve" smooth="yes"/>
      <point x="283" y="757"/>
      <point x="310" y="842"/>
      <point x="315" y="867" type="curve" smooth="yes"/>
      <point x="318" y="875"/>
      <point x="323" y="877"/>
      <point x="334" y="877" type="curve" smooth="yes"/>
      <point x="351" y="878"/>
      <point x="381" y="879"/>
      <point x="399" y="877" type="curve" smooth="yes"/>
      <point x="407" y="878"/>
      <point x="417" y="874"/>
    </contour>
    <contour>
      <point x="426" y="630" type="curve" smooth="yes"/>
      <point x="423" y="622"/>
      <point x="417" y="617"/>
      <point x="408" y="620" type="curve" smooth="yes"/>
      <point x="344" y="616"/>
      <point x="329" y="605"/>
      <point x="314" y="532" type="curve" smooth="yes"/>
      <point x="225" y="112" type="line" smooth="yes"/>
      <point x="210" y="43"/>
      <point x="228" y="22"/>
      <point x="303" y="23" type="curve" smooth="yes"/>
      <point x="311" y="23"/>
      <point x="314" y="16"/>
      <point x="312" y="9" type="curve" smooth="yes"/>
      <point x="311" y="4"/>
      <point x="305" y="-1"/>
      <point x="301" y="-2" type="curve" smooth="yes"/>
      <point x="231" y="0"/>
      <point x="95" y="2"/>
      <point x="30" y="-2" type="curve" smooth="yes"/>
      <point x="23" y="-2"/>
      <point x="21" y="6"/>
      <point x="23" y="13" type="curve" smooth="yes"/>
      <point x="25" y="19"/>
      <point x="34" y="25"/>
      <point x="39" y="25" type="curve" smooth="yes"/>
      <point x="108" y="24"/>
      <point x="122" y="50"/>
      <point x="135" y="113" type="curve" smooth="yes"/>
      <point x="224" y="533" type="line" smooth="yes"/>
      <point x="236" y="589"/>
      <point x="238" y="614"/>
      <point x="166" y="619" type="curve" smooth="yes"/>
      <point x="155" y="618"/>
      <point x="138" y="618"/>
      <point x="144" y="634" type="curve" smooth="yes"/>
      <point x="146" y="642"/>
      <point x="151" y="646"/>
      <point x="160" y="646" type="curve" smooth="yes"/>
      <point x="224" y="643"/>
      <point x="352" y="643"/>
      <point x="421" y="646" type="curve" smooth="yes"/>
      <point x="429" y="646"/>
      <point x="429" y="638"/>
    </contour>
  </outline>
</glyph>
<glyph name="Icircumflex" format="1">
  <advance width="356"/>
  <unicode hex="00CE"/>
  <outline>
    <contour>
      <point x="426" y="630" type="curve" smooth="yes"/>
      <point x="423" y="622"/>
      <point x="417" y="617"/>
      <point x="408" y="620" type="curve" smooth="yes"/>
      <point x="344" y="616"/>
      <point x="329" y="605"/>
      <point x="314" y="532" type="curve" smooth="yes"/>
      <point x="225" y="112" type="line" smooth="yes"/>
      <point x="210" y="43"/>
      <point x="228" y="22"/>
      <point x="303" y="23" type="curve" smooth="yes"/>
      <point x="311" y="23"/>
      <point x="314" y="16"/>
      <point x="312" y="9" type="curve" smooth="yes"/>
      <point x="311" y="4"/>
      <point x="305" y="-1"/>
      <point x="301" y="-2" type="curve" smooth="yes"/>
      <point x="231" y="0"/>
      <point x="95" y="2"/>
      <point x="30" y="-2" type="curve" smooth="yes"/>
      <point x="23" y="-2"/>
      <point x="21" y="6"/>
      <point x="23" y="13" type="curve" smooth="yes"/>
      <point x="25" y="19"/>
      <point x="34" y="25"/>
      <point x="39" y="25" type="curve" smooth="yes"/>
      <point x="108" y="24"/>
      <point x="122" y="50"/>
      <point x="135" y="113" type="curve" smooth="yes"/>
      <point x="224" y="533" type="line" smooth="yes"/>
      <point x="236" y="589"/>
      <point x="238" y="614"/>
      <point x="166" y="619" type="curve" smooth="yes"/>
      <point x="155" y="618"/>
      <point x="138" y="618"/>
      <point x="144" y="634" type="curve" smooth="yes"/>
      <point x="146" y="642"/>
      <point x="151" y="646"/>
      <point x="160" y="646" type="curve" smooth="yes"/>
      <point x="224" y="643"/>
      <point x="352" y="643"/>
      <point x="421" y="646" type="curve" smooth="yes"/>
      <point x="429" y="646"/>
      <point x="429" y="638"/>
    </contour>
    <contour>
      <point x="429" y="708" type="line" smooth="yes"/>
      <point x="430" y="702"/>
      <point x="430" y="698"/>
      <point x="424" y="698" type="curve" smooth="yes"/>
      <point x="418" y="698" type="line"/>
      <point x="339" y="793" type="line" smooth="yes"/>
      <point x="336" y="797"/>
      <point x="331" y="797"/>
      <point x="326" y="794" type="curve" smooth="yes"/>
      <point x="177" y="698" type="line"/>
      <point x="165" y="698" type="line" smooth="yes"/>
      <point x="161" y="699"/>
      <point x="162" y="702"/>
      <point x="165" y="705" type="curve" smooth="yes"/>
      <point x="311" y="852" type="line" smooth="yes"/>
      <point x="317" y="859"/>
      <point x="325" y="861"/>
      <point x="333" y="861" type="curve" smooth="yes"/>
      <point x="344" y="862"/>
      <point x="366" y="860"/>
      <point x="377" y="860" type="curve" smooth="yes"/>
      <point x="387" y="859"/>
      <point x="392" y="857"/>
      <point x="395" y="845" type="curve" smooth="yes"/>
    </contour>
  </outline>
</glyph>
<glyph name="Idieresis" format="1">
  <advance width="356"/>
  <unicode hex="00CF"/>
  <outline>
    <contour>
      <point x="454" y="756" type="curve" smooth="yes"/>
      <point x="454" y="727"/>
      <point x="432" y="702"/>
      <point x="403" y="702" type="curve" smooth="yes"/>
      <point x="374" y="702"/>
      <point x="351" y="727"/>
      <point x="351" y="756" type="curve" smooth="yes"/>
      <point x="351" y="786"/>
      <point x="374" y="809"/>
      <point x="403" y="809" type="curve" smooth="yes"/>
      <point x="432" y="809"/>
      <point x="454" y="786"/>
    </contour>
    <contour>
      <point x="286" y="755" type="curve" smooth="yes"/>
      <point x="286" y="727"/>
      <point x="263" y="702"/>
      <point x="235" y="702" type="curve" smooth="yes"/>
      <point x="206" y="702"/>
      <point x="184" y="727"/>
      <point x="184" y="755" type="curve" smooth="yes"/>
      <point x="184" y="785"/>
      <point x="206" y="808"/>
      <point x="235" y="808" type="curve" smooth="yes"/>
      <point x="263" y="808"/>
      <point x="286" y="785"/>
    </contour>
    <contour>
      <point x="426" y="630" type="curve" smooth="yes"/>
      <point x="423" y="622"/>
      <point x="417" y="617"/>
      <point x="408" y="620" type="curve" smooth="yes"/>
      <point x="344" y="616"/>
      <point x="329" y="605"/>
      <point x="314" y="532" type="curve" smooth="yes"/>
      <point x="225" y="112" type="line" smooth="yes"/>
      <point x="210" y="43"/>
      <point x="228" y="22"/>
      <point x="303" y="23" type="curve" smooth="yes"/>
      <point x="311" y="23"/>
      <point x="314" y="16"/>
      <point x="312" y="9" type="curve" smooth="yes"/>
      <point x="311" y="4"/>
      <point x="305" y="-1"/>
      <point x="301" y="-2" type="curve" smooth="yes"/>
      <point x="231" y="0"/>
      <point x="95" y="2"/>
      <point x="30" y="-2" type="curve" smooth="yes"/>
      <point x="23" y="-2"/>
      <point x="21" y="6"/>
      <point x="23" y="13" type="curve" smooth="yes"/>
      <point x="25" y="19"/>
      <point x="34" y="25"/>
      <point x="39" y="25" type="curve" smooth="yes"/>
      <point x="108" y="24"/>
      <point x="122" y="50"/>
      <point x="135" y="113" type="curve" smooth="yes"/>
      <point x="224" y="533" type="line" smooth="yes"/>
      <point x="236" y="589"/>
      <point x="238" y="614"/>
      <point x="166" y="619" type="curve" smooth="yes"/>
      <point x="155" y="618"/>
      <point x="138" y="618"/>
      <point x="144" y="634" type="curve" smooth="yes"/>
      <point x="146" y="642"/>
      <point x="151" y="646"/>
      <point x="160" y="646" type="curve" smooth="yes"/>
      <point x="224" y="643"/>
      <point x="352" y="643"/>
      <point x="421" y="646" type="curve" smooth="yes"/>
      <point x="429" y="646"/>
      <point x="429" y="638"/>
    </contour>
  </outline>
</glyph>
<glyph name="Ograve" format="1">
  <advance width="819"/>
  <unicode hex="00D2"/>
  <outline>
    <contour>
      <point x="576" y="718" type="line" smooth="yes"/>
      <point x="577" y="715"/>
      <point x="574" y="713"/>
      <point x="569" y="713" type="curve" smooth="yes"/>
      <point x="565" y="713"/>
      <point x="560" y="714"/>
      <point x="558" y="717" type="curve" smooth="yes"/>
      <point x="434" y="863" type="line" smooth="yes"/>
      <point x="427" y="872"/>
      <point x="435" y="876"/>
      <point x="440" y="876" type="curve" smooth="yes"/>
      <point x="515" y="876" type="line" smooth="yes"/>
      <point x="519" y="876"/>
      <point x="524" y="877"/>
      <point x="526" y="873" type="curve" smooth="yes"/>
      <point x="527" y="872"/>
      <point x="527" y="871"/>
      <point x="528" y="870" type="curve" smooth="yes"/>
    </contour>
    <contour>
      <point x="782" y="358" type="curve" smooth="yes"/>
      <point x="782" y="150"/>
      <point x="606" y="-18"/>
      <point x="387" y="-18" type="curve" smooth="yes"/>
      <point x="211" y="-18"/>
      <point x="88" y="114"/>
      <point x="88" y="287" type="curve" smooth="yes"/>
      <point x="88" y="491"/>
      <point x="267" y="662"/>
      <point x="480" y="662" type="curve" smooth="yes"/>
      <point x="656" y="662"/>
      <point x="782" y="529"/>
    </contour>
    <contour>
      <point x="688" y="389" type="curve" smooth="yes"/>
      <point x="688" y="532"/>
      <point x="609" y="632"/>
      <point x="481" y="631" type="curve" smooth="yes"/>
      <point x="406" y="631"/>
      <point x="342" y="605"/>
      <point x="295" y="555" type="curve" smooth="yes"/>
      <point x="226" y="482"/>
      <point x="182" y="369"/>
      <point x="182" y="262" type="curve" smooth="yes"/>
      <point x="182" y="109"/>
      <point x="256" y="14"/>
      <point x="387" y="13" type="curve" smooth="yes"/>
      <point x="556" y="12"/>
      <point x="688" y="176"/>
    </contour>
  </outline>
</glyph>
<glyph name="Thorn" format="1">
  <advance width="573"/>
  <unicode hex="00DE"/>
  <outline>
    <contour>
      <point x="600" y="341" type="curve" smooth="yes"/>
      <point x="600" y="187"/>
      <point x="465" y="124"/>
      <point x="333" y="124" type="curve" smooth="yes"/>
      <point x="315" y="124"/>
      <point x="275" y="119"/>
      <point x="280" y="141" type="curve" smooth="yes"/>
      <point x="284" y="160"/>
      <point x="292" y="149"/>
      <point x="314" y="149" type="curve" smooth="yes"/>
      <point x="388" y="149"/>
      <point x="439" y="175"/>
      <point x="474" y="230" type="curve" smooth="yes"/>
      <point x="497" y="265"/>
      <point x="510" y="311"/>
      <point x="510" y="355" type="curve" smooth="yes"/>
      <point x="510" y="416"/>
      <point x="483" y="464"/>
      <point x="441" y="479" type="curve" smooth="yes"/>
      <point x="405" y="492"/>
      <point x="365" y="490"/>
      <point x="328" y="490" type="curve" smooth="yes"/>
      <point x="309" y="490"/>
      <point x="302" y="485"/>
      <point x="297" y="475" type="curve" smooth="yes"/>
      <point x="224" y="112" type="line" smooth="yes"/>
      <point x="213" y="55"/>
      <point x="218" y="26"/>
      <point x="289" y="26" type="curve" smooth="yes"/>
      <point x="306" y="26"/>
      <point x="305" y="23"/>
      <point x="303" y="13" type="curve" smooth="yes"/>
      <point x="300" y="1"/>
      <point x="302" y="-5"/>
      <point x="282" y="-4" type="curve" smooth="yes"/>
      <point x="219" y="-2"/>
      <point x="115" y="-1"/>
      <point x="55" y="-4" type="curve" smooth="yes"/>
      <point x="43" y="-4"/>
      <point x="45" y="4"/>
      <point x="47" y="13" type="curve" smooth="yes"/>
      <point x="51" y="31"/>
      <point x="49" y="23"/>
      <point x="72" y="27" type="curve" smooth="yes"/>
      <point x="113" y="34"/>
      <point x="128" y="57"/>
      <point x="142" y="125" type="curve" smooth="yes"/>
      <point x="223" y="533" type="line" smooth="yes"/>
      <point x="227" y="555"/>
      <point x="229" y="568"/>
      <point x="229" y="577" type="curve" smooth="yes"/>
      <point x="229" y="606"/>
      <point x="207" y="623"/>
      <point x="167" y="623" type="curve" smooth="yes"/>
      <point x="155" y="623"/>
      <point x="154" y="630"/>
      <point x="155" y="638" type="curve" smooth="yes"/>
      <point x="157" y="648"/>
      <point x="166" y="650"/>
      <point x="175" y="649" type="curve" smooth="yes"/>
      <point x="220" y="649"/>
      <point x="293" y="646"/>
      <point x="395" y="649" type="curve" smooth="yes"/>
      <point x="407" y="652"/>
      <point x="409" y="642"/>
      <point x="406" y="634" type="curve" smooth="yes"/>
      <point x="405" y="628"/>
      <point x="403" y="626"/>
      <point x="397" y="624" type="curve" smooth="yes"/>
      <point x="345" y="620"/>
      <point x="323" y="597"/>
      <point x="310" y="544" type="curve" smooth="yes"/>
      <point x="304" y="517"/>
      <point x="323" y="520"/>
      <point x="357" y="520" type="curve" smooth="yes"/>
      <point x="450" y="520"/>
      <point x="491" y="511"/>
      <point x="534" y="479" type="curve" smooth="yes"/>
      <point x="577" y="446"/>
      <point x="600" y="399"/>
    </contour>
  </outline>
</glyph>
<glyph name="aring" format="1">
  <advance width="416"/>
  <unicode hex="00E5"/>
  <outline>
    <contour>
      <point x="396" y="83" type="curve" smooth="yes"/>
      <point x="386" y="72"/>
      <point x="366" y="49"/>
      <point x="345" y="28" type="curve" smooth="yes"/>
      <point x="323" y="7"/>
      <point x="300" y="-12"/>
      <point x="284" y="-12" type="curve" smooth="yes"/>
      <point x="260" y="-12"/>
      <point x="253" y="13"/>
      <point x="254" y="43" type="curve" smooth="yes"/>
      <point x="255" y="66"/>
      <point x="259" y="88"/>
      <point x="264" y="110" type="curve" smooth="yes"/>
      <point x="267" y="125"/>
      <point x="259" y="120"/>
      <point x="253" y="113" type="curve" smooth="yes"/>
      <point x="230" y="89"/>
      <point x="135" y="-12"/>
      <point x="99" y="-12" type="curve" smooth="yes"/>
      <point x="65" y="-12"/>
      <point x="37" y="41"/>
      <point x="37" y="97" type="curve" smooth="yes"/>
      <point x="37" y="200"/>
      <point x="116" y="322"/>
      <point x="224" y="385" type="curve" smooth="yes"/>
      <point x="277" y="416"/>
      <point x="327" y="427"/>
      <point x="386" y="428" type="curve" smooth="yes"/>
      <point x="389" y="428"/>
      <point x="391" y="427"/>
      <point x="392" y="419" type="curve" smooth="yes"/>
      <point x="333" y="120" type="line" smooth="yes"/>
      <point x="332" y="114"/>
      <point x="314" y="51"/>
      <point x="332" y="55" type="curve" smooth="yes"/>
      <point x="343" y="57"/>
      <point x="365" y="80"/>
      <point x="373" y="89" type="curve" smooth="yes"/>
      <point x="379" y="96"/>
      <point x="384" y="101"/>
      <point x="386" y="103" type="curve" smooth="yes"/>
      <point x="395" y="112"/>
      <point x="404" y="96"/>
    </contour>
    <contour>
      <point x="313" y="357" type="line" smooth="yes"/>
      <point x="315" y="363"/>
      <point x="318" y="372"/>
      <point x="307" y="371" type="curve" smooth="yes"/>
      <point x="261" y="366"/>
      <point x="228" y="352"/>
      <point x="199" y="332" type="curve" smooth="yes"/>
      <point x="141" y="293"/>
      <point x="104" y="207"/>
      <point x="104" y="118" type="curve" smooth="yes"/>
      <point x="104" y="75"/>
      <point x="119" y="46"/>
      <point x="135" y="46" type="curve" smooth="yes"/>
      <point x="149" y="46"/>
      <point x="256" y="147"/>
      <point x="274" y="164" type="curve"/>
    </contour>
    <contour>
      <point x="396" y="559" type="curve" smooth="yes"/>
      <point x="396" y="505"/>
      <point x="354" y="462"/>
      <point x="301" y="462" type="curve" smooth="yes"/>
      <point x="249" y="462"/>
      <point x="205" y="505"/>
      <point x="205" y="559" type="curve" smooth="yes"/>
      <point x="205" y="613"/>
      <point x="249" y="657"/>
      <point x="301" y="657" type="curve" smooth="yes"/>
      <point x="354" y="657"/>
      <point x="396" y="613"/>
    </contour>
    <contour>
      <point x="361" y="559" type="curve" smooth="yes"/>
      <point x="361" y="593"/>
      <point x="334" y="620"/>
      <point x="301" y="620" type="curve" smooth="yes"/>
      <point x="268" y="620"/>
      <point x="242" y="593"/>
      <point x="242" y="559" type="curve" smooth="yes"/>
      <point x="242" y="526"/>
      <point x="268" y="499"/>
      <point x="301" y="499" type="curve" smooth="yes"/>
      <point x="334" y="499"/>
      <point x="361" y="526"/>
    </contour>
  </outline>
</glyph>
<glyph name="iacute" format="1">
  <advance width="255"/>
  <unicode hex="00ED"/>
  <outline>
    <contour>
      <point x="223" y="94" type="curve" smooth="yes"/>
      <point x="205" y="71"/>
      <point x="184" y="48"/>
      <point x="160" y="26" type="curve" smooth="yes"/>
      <point x="131" y="-1"/>
      <point x="110" y="-14"/>
      <point x="95" y="-14" type="curve" smooth="yes"/>
      <point x="57" y="-14"/>
      <point x="65" y="40"/>
      <point x="70" y="64" type="curve" smooth="yes"/>
      <point x="121" y="323" type="line" smooth="yes"/>
      <point x="122" y="328"/>
      <point x="132" y="359"/>
      <point x="122" y="359" type="curve" smooth="yes"/>
      <point x="107" y="359"/>
      <point x="82" y="319"/>
      <point x="66" y="307" type="curve" smooth="yes"/>
      <point x="56" y="299"/>
      <point x="49" y="319"/>
      <point x="54" y="324" type="curve" smooth="yes"/>
      <point x="115" y="392"/>
      <point x="155" y="425"/>
      <point x="178" y="425" type="curve" smooth="yes"/>
      <point x="207" y="425"/>
      <point x="201" y="382"/>
      <point x="197" y="364" type="curve" smooth="yes"/>
      <point x="139" y="75" type="line" smooth="yes"/>
      <point x="138" y="70"/>
      <point x="132" y="44"/>
      <point x="143" y="44" type="curve" smooth="yes"/>
      <point x="155" y="44"/>
      <point x="198" y="96"/>
      <point x="207" y="108" type="curve" smooth="yes"/>
      <point x="214" y="117"/>
      <point x="230" y="103"/>
    </contour>
    <contour>
      <point x="290" y="644" type="curve" smooth="yes"/>
      <point x="261" y="604"/>
      <point x="199" y="534"/>
      <point x="168" y="499" type="curve" smooth="yes"/>
      <point x="162" y="493"/>
      <point x="150" y="494"/>
      <point x="153" y="503" type="curve" smooth="yes"/>
      <point x="164" y="538"/>
      <point x="191" y="624"/>
      <point x="195" y="648" type="curve" smooth="yes"/>
      <point x="198" y="656"/>
      <point x="204" y="658"/>
      <point x="214" y="658" type="curve" smooth="yes"/>
      <point x="232" y="659"/>
      <point x="262" y="660"/>
      <point x="279" y="658" type="curve" smooth="yes"/>
      <point x="288" y="660"/>
      <point x="298" y="655"/>
    </contour>
  </outline>
</glyph>
<glyph name="idieresis" format="1">
  <advance width="255"/>
  <unicode hex="00EF"/>
  <outline>
    <contour>
      <point x="223" y="94" type="curve" smooth="yes"/>
      <point x="205" y="71"/>
      <point x="184" y="48"/>
      <point x="160" y="26" type="curve" smooth="yes"/>
      <point x="131" y="-1"/>
      <point x="110" y="-14"/>
      <point x="95" y="-14" type="curve" smooth="yes"/>
      <point x="57" y="-14"/>
      <point x="65" y="40"/>
      <point x="70" y="64" type="curve" smooth="yes"/>
      <point x="121" y="323" type="line" smooth="yes"/>
      <point x="122" y="328"/>
      <point x="132" y="359"/>
      <point x="122" y="359" type="curve" smooth="yes"/>
      <point x="107" y="359"/>
      <point x="82" y="319"/>
      <point x="66" y="307" type="curve" smooth="yes"/>
      <point x="56" y="299"/>
      <point x="49" y="319"/>
      <point x="54" y="324" type="curve" smooth="yes"/>
      <point x="115" y="392"/>
      <point x="155" y="425"/>
      <point x="178" y="425" type="curve" smooth="yes"/>
      <point x="207" y="425"/>
      <point x="201" y="382"/>
      <point x="197" y="364" type="curve" smooth="yes"/>
      <point x="139" y="75" type="line" smooth="yes"/>
      <point x="138" y="70"/>
      <point x="132" y="44"/>
      <point x="143" y="44" type="curve" smooth="yes"/>
      <point x="155" y="44"/>
      <point x="198" y="96"/>
      <point x="207" y="108" type="curve" smooth="yes"/>
      <point x="214" y="117"/>
      <point x="230" y="103"/>
    </contour>
    <contour>
      <point x="325" y="537" type="curve" smooth="yes"/>
      <point x="325" y="508"/>
      <point x="302" y="484"/>
      <point x="274" y="484" type="curve" smooth="yes"/>
      <point x="245" y="484"/>
      <point x="221" y="508"/>
      <point x="221" y="537" type="curve" smooth="yes"/>
      <point x="221" y="567"/>
      <point x="245" y="590"/>
      <point x="274" y="590" type="curve" smooth="yes"/>
      <point x="302" y="590"/>
      <point x="325" y="567"/>
    </contour>
    <contour>
      <point x="157" y="536" type="curve" smooth="yes"/>
      <point x="157" y="508"/>
      <point x="133" y="484"/>
      <point x="106" y="484" type="curve" smooth="yes"/>
      <point x="77" y="484"/>
      <point x="54" y="508"/>
      <point x="54" y="536" type="curve" smooth="yes"/>
      <point x="54" y="566"/>
      <point x="77" y="589"/>
      <point x="106" y="589" type="curve" smooth="yes"/>
      <point x="133" y="589"/>
      <point x="157" y="566"/>
    </contour>
  </outline>
</glyph>
<glyph name="oacute" format="1">
  <advance width="398"/>
  <unicode hex="00F3"/>
  <outline>
    <contour>
      <point x="369" y="644" type="curve" smooth="yes"/>
      <point x="340" y="604"/>
      <point x="277" y="534"/>
      <point x="246" y="499" type="curve" smooth="yes"/>
      <point x="241" y="493"/>
      <point x="229" y="494"/>
      <point x="232" y="503" type="curve" smooth="yes"/>
      <point x="243" y="538"/>
      <point x="270" y="623"/>
      <point x="274" y="648" type="curve" smooth="yes"/>
      <point x="277" y="656"/>
      <point x="283" y="658"/>
      <point x="293" y="658" type="curve" smooth="yes"/>
      <point x="310" y="659"/>
      <point x="340" y="660"/>
      <point x="358" y="658" type="curve" smooth="yes"/>
      <point x="366" y="659"/>
      <point x="377" y="655"/>
    </contour>
    <contour>
      <point x="374" y="274" type="curve" smooth="yes"/>
      <point x="374" y="212"/>
      <point x="355" y="154"/>
      <point x="319" y="107" type="curve" smooth="yes"/>
      <point x="289" y="68"/>
      <point x="236" y="25"/>
      <point x="187" y="4" type="curve" smooth="yes"/>
      <point x="165" y="-6"/>
      <point x="145" y="-12"/>
      <point x="131" y="-12" type="curve" smooth="yes"/>
      <point x="86" y="-12"/>
      <point x="38" y="68"/>
      <point x="38" y="155" type="curve" smooth="yes"/>
      <point x="38" y="241"/>
      <point x="89" y="326"/>
      <point x="175" y="385" type="curve" smooth="yes"/>
      <point x="213" y="411"/>
      <point x="254" y="429"/>
      <point x="279" y="429" type="curve" smooth="yes"/>
      <point x="324" y="429"/>
      <point x="374" y="356"/>
    </contour>
    <contour>
      <point x="305" y="261" type="curve" smooth="yes"/>
      <point x="305" y="332"/>
      <point x="270" y="385"/>
      <point x="228" y="385" type="curve" smooth="yes"/>
      <point x="166" y="385"/>
      <point x="109" y="275"/>
      <point x="109" y="151" type="curve" smooth="yes"/>
      <point x="109" y="83"/>
      <point x="140" y="30"/>
      <point x="176" y="30" type="curve" smooth="yes"/>
      <point x="242" y="30"/>
      <point x="305" y="139"/>
    </contour>
  </outline>
</glyph>
<glyph name="odieresis" format="1">
  <advance width="398"/>
  <unicode hex="00F6"/>
  <outline>
    <contour>
      <point x="414" y="537" type="curve" smooth="yes"/>
      <point x="414" y="508"/>
      <point x="391" y="484"/>
      <point x="362" y="484" type="curve" smooth="yes"/>
      <point x="334" y="484"/>
      <point x="310" y="508"/>
      <point x="310" y="537" type="curve" smooth="yes"/>
      <point x="310" y="567"/>
      <point x="334" y="590"/>
      <point x="362" y="590" type="curve" smooth="yes"/>
      <point x="391" y="590"/>
      <point x="414" y="567"/>
    </contour>
    <contour>
      <point x="246" y="536" type="curve" smooth="yes"/>
      <point x="246" y="508"/>
      <point x="222" y="484"/>
      <point x="194" y="484" type="curve" smooth="yes"/>
      <point x="166" y="484"/>
      <point x="143" y="508"/>
      <point x="143" y="536" type="curve" smooth="yes"/>
      <point x="143" y="566"/>
      <point x="166" y="589"/>
      <point x="194" y="589" type="curve" smooth="yes"/>
      <point x="222" y="589"/>
      <point x="246" y="566"/>
    </contour>
    <contour>
      <point x="374" y="274" type="curve" smooth="yes"/>
      <point x="374" y="212"/>
      <point x="355" y="154"/>
      <point x="319" y="107" type="curve" smooth="yes"/>
      <point x="289" y="68"/>
      <point x="236" y="25"/>
      <point x="187" y="4" type="curve" smooth="yes"/>
      <point x="165" y="-6"/>
      <point x="145" y="-12"/>
      <point x="131" y="-12" type="curve" smooth="yes"/>
      <point x="86" y="-12"/>
      <point x="38" y="68"/>
      <point x="38" y="155" type="curve" smooth="yes"/>
      <point x="38" y="241"/>
      <point x="89" y="326"/>
      <point x="175" y="385" type="curve" smooth="yes"/>
      <point x="213" y="411"/>
      <point x="254" y="429"/>
      <point x="279" y="429" type="curve" smooth="yes"/>
      <point x="324" y="429"/>
      <point x="374" y="356"/>
    </contour>
    <contour>
      <point x="305" y="261" type="curve" smooth="yes"/>
      <point x="305" y="332"/>
      <point x="270" y="385"/>
      <point x="228" y="385" type="curve" smooth="yes"/>
      <point x="166" y="385"/>
      <point x="109" y="275"/>
      <point x="109" y="151" type="curve" smooth="yes"/>
      <point x="109" y="83"/>
      <point x="140" y="30"/>
      <point x="176" y="30" type="curve" smooth="yes"/>
      <point x="242" y="30"/>
      <point x="305" y="139"/>
    </contour>
  </outline>
</glyph>
<glyph name="dotlessi" format="1">
  <advance width="255"/>
  <unicode hex="0131"/>
  <outline>
    <contour>
      <point x="223" y="94" type="curve" smooth="yes"/>
      <point x="205" y="71"/>
      <point x="184" y="48"/>
      <point x="160" y="26" type="curve" smooth="yes"/>
      <point x="131" y="-1"/>
      <point x="110" y="-14"/>
      <point x="95" y="-14" type="curve" smooth="yes"/>
      <point x="57" y="-14"/>
      <point x="65" y="40"/>
      <point x="70" y="64" type="curve" smooth="yes"/>
      <point x="121" y="323" type="line" smooth="yes"/>
      <point x="122" y="328"/>
      <point x="132" y="359"/>
      <point x="122" y="359" type="curve" smooth="yes"/>
      <point x="107" y="359"/>
      <point x="82" y="319"/>
      <point x="66" y="307" type="curve" smooth="yes"/>
      <point x="56" y="299"/>
      <point x="49" y="319"/>
      <point x="54" y="324" type="curve" smooth="yes"/>
      <point x="115" y="392"/>
      <point x="155" y="425"/>
      <point x="178" y="425" type="curve" smooth="yes"/>
      <point x="207" y="425"/>
      <point x="201" y="382"/>
      <point x="197" y="364" type="curve" smooth="yes"/>
      <point x="139" y="75" type="line" smooth="yes"/>
      <point x="138" y="70"/>
      <point x="132" y="44"/>
      <point x="143" y="44" type="curve" smooth="yes"/>
      <point x="155" y="44"/>
      <point x="198" y="96"/>
      <point x="207" y="108" type="curve" smooth="yes"/>
      <point x="214" y="117"/>
      <point x="230" y="103"/>
    </contour>
  </outline>
</glyph>
<glyph name="Scaron" format="1">
  <advance width="540"/>
  <unicode hex="0160"/>
  <outline>
    <contour>
      <point x="510" y="646" type="curve" smooth="yes"/>
      <point x="506" y="625"/>
      <point x="493" y="535"/>
      <point x="487" y="476" type="curve" smooth="yes"/>
      <point x="487" y="471"/>
      <point x="480" y="470"/>
      <point x="475" y="470" type="curve" smooth="yes"/>
      <point x="470" y="470"/>
      <point x="463" y="471"/>
      <point x="463" y="476" type="curve" smooth="yes"/>
      <point x="463" y="571"/>
      <point x="420" y="623"/>
      <point x="328" y="623" type="curve" smooth="yes"/>
      <point x="246" y="623"/>
      <point x="200" y="582"/>
      <point x="200" y="523" type="curve" smooth="yes"/>
      <point x="200" y="426"/>
      <point x="348" y="361"/>
      <point x="413" y="296" type="curve" smooth="yes"/>
      <point x="446" y="263"/>
      <point x="471" y="215"/>
      <point x="471" y="168" type="curve" smooth="yes"/>
      <point x="471" y="59"/>
      <point x="380" y="-18"/>
      <point x="236" y="-18" type="curve" smooth="yes"/>
      <point x="165" y="-18"/>
      <point x="89" y="5"/>
      <point x="19" y="45" type="curve" smooth="yes"/>
      <point x="14" y="48"/>
      <point x="14" y="64"/>
      <point x="15" y="69" type="curve" smooth="yes"/>
      <point x="47" y="196" type="line" smooth="yes"/>
      <point x="50" y="209"/>
      <point x="71" y="207"/>
      <point x="69" y="194" type="curve" smooth="yes"/>
      <point x="69" y="183"/>
      <point x="68" y="179"/>
      <point x="68" y="172" type="curve" smooth="yes"/>
      <point x="68" y="72"/>
      <point x="127" y="12"/>
      <point x="240" y="12" type="curve" smooth="yes"/>
      <point x="338" y="12"/>
      <point x="395" y="60"/>
      <point x="395" y="131" type="curve" smooth="yes"/>
      <point x="395" y="272"/>
      <point x="128" y="310"/>
      <point x="128" y="484" type="curve" smooth="yes"/>
      <point x="128" y="578"/>
      <point x="211" y="653"/>
      <point x="328" y="653" type="curve" smooth="yes"/>
      <point x="373" y="653"/>
      <point x="412" y="633"/>
      <point x="453" y="633" type="curve" smooth="yes"/>
      <point x="465" y="633"/>
      <point x="476" y="637"/>
      <point x="485" y="647" type="curve" smooth="yes"/>
      <point x="487" y="651"/>
      <point x="494" y="653"/>
      <point x="500" y="652" type="curve" smooth="yes"/>
      <point x="506" y="651"/>
      <point x="511" y="649"/>
    </contour>
    <contour>
      <point x="534" y="853" type="line"/>
      <point x="376" y="690" type="line"/>
      <point x="300" y="690" type="line"/>
      <point x="262" y="853" type="line"/>
      <point x="275" y="853" type="line"/>
      <point x="359" y="751" type="line"/>
      <point x="516" y="853" type="line"/>
    </contour>
  </outline>
</glyph>
<glyph name="ogonek" format="1">
  <advance width="339"/>
  <unicode hex="02DB"/>
  <outline>
    <contour>
      <point x="239" y="-150" type="curve" smooth="yes"/>
      <point x="189" y="-183"/>
      <point x="162" y="-192"/>
      <point x="123" y="-192" type="curve" smooth="yes"/>
      <point x="54" y="-192"/>
      <point x="8" y="-152"/>
      <point x="8" y="-91" type="curve" smooth="yes"/>
      <point x="8" y="-57"/>
      <point x="20" y="-29"/>
      <point x="48" y="2" type="curve"/>
      <point x="77" y="2" type="line"/>
      <point x="66" y="-28"/>
      <point x="64" y="-39"/>
      <point x="64" y="-53" type="curve" smooth="yes"/>
      <point x="64" y="-105"/>
      <point x="108" y="-145"/>
      <point x="166" y="-145" type="curve" smooth="yes"/>
      <point x="184" y="-145"/>
      <point x="196" y="-142"/>
      <point x="226" y="-132" type="curve" smooth="yes"/>
      <point x="235" y="-128"/>
      <point x="248" y="-142"/>
    </contour>
  </outline>
</glyph>
<glyph name="endash" format="1">
  <advance width="617"/>
  <unicode hex="2013"/>
  <outline>
    <contour>
      <point x="562" y="227" type="curve" smooth="yes"/>
      <point x="559" y="195" type="line" smooth="yes"/>
      <point x="558" y="188"/>
      <point x="552" y="186"/>
      <point x="543" y="186" type="curve" smooth="yes"/>
      <point x="424" y="186"/>
      <point x="188" y="186"/>
      <point x="69" y="186" type="curve" smooth="yes"/>
      <point x="59" y="186"/>
      <point x="58" y="192"/>
      <point x="59" y="199" type="curve" smooth="yes"/>
      <point x="62" y="229" type="line" smooth="yes"/>
      <point x="62" y="234"/>
      <point x="69" y="239"/>
      <point x="74" y="240" type="curve" smooth="yes"/>
      <point x="196" y="240"/>
      <point x="432" y="240"/>
      <point x="548" y="240" type="curve" smooth="yes"/>
      <point x="556" y="240"/>
      <point x="562" y="232"/>
    </contour>
  </outline>
</glyph>
<glyph name="quotesinglbase" format="1">
  <advance width="297"/>
  <unicode hex="201A"/>
  <outline>
    <contour>
      <point x="229" y="21" type="curve" smooth="yes"/>
      <point x="229" y="-70"/>
      <point x="152" y="-138"/>
      <point x="83" y="-178" type="curve" smooth="yes"/>
      <point x="78" y="-181"/>
      <point x="72" y="-175"/>
      <point x="69" y="-173" type="curve" smooth="yes"/>
      <point x="67" y="-171"/>
      <point x="67" y="-159"/>
      <point x="72" y="-156" type="curve" smooth="yes"/>
      <point x="137" y="-112"/>
      <point x="161" y="-81"/>
      <point x="161" y="-43" type="curve" smooth="yes"/>
      <point x="161" y="-28"/>
      <point x="158" y="-18"/>
      <point x="147" y="0" type="curve" smooth="yes"/>
      <point x="136" y="17"/>
      <point x="131" y="32"/>
      <point x="131" y="46" type="curve" smooth="yes"/>
      <point x="131" y="75"/>
      <point x="149" y="96"/>
      <point x="174" y="96" type="curve" smooth="yes"/>
      <point x="207" y="96"/>
      <point x="229" y="65"/>
    </contour>
  </outline>
</glyph>
<glyph name="quotedblleft" format="1">
  <advance width="509"/>
  <unicode hex="201C"/>
  <outline>
    <contour>
      <point x="566" y="651" type="curve" smooth="yes"/>
      <point x="569" y="646"/>
      <point x="568" y="638"/>
      <point x="564" y="637" type="curve" smooth="yes"/>
      <point x="523" y="606"/>
      <point x="475" y="574"/>
      <point x="475" y="527" type="curve" smooth="yes"/>
      <point x="475" y="512"/>
      <point x="478" y="503"/>
      <point x="489" y="485" type="curve" smooth="yes"/>
      <point x="499" y="468"/>
      <point x="504" y="455"/>
      <point x="504" y="441" type="curve" smooth="yes"/>
      <point x="504" y="414"/>
      <point x="486" y="393"/>
      <point x="463" y="393" type="curve" smooth="yes"/>
      <point x="431" y="393"/>
      <point x="409" y="424"/>
      <point x="409" y="465" type="curve" smooth="yes"/>
      <point x="409" y="540"/>
      <point x="462" y="611"/>
      <point x="553" y="657" type="curve" smooth="yes"/>
      <point x="556" y="659"/>
      <point x="563" y="658"/>
    </contour>
    <contour>
      <point x="365" y="654" type="curve" smooth="yes"/>
      <point x="368" y="649"/>
      <point x="367" y="640"/>
      <point x="363" y="637" type="curve" smooth="yes"/>
      <point x="298" y="594"/>
      <point x="275" y="564"/>
      <point x="275" y="527" type="curve" smooth="yes"/>
      <point x="275" y="512"/>
      <point x="277" y="503"/>
      <point x="288" y="485" type="curve" smooth="yes"/>
      <point x="298" y="468"/>
      <point x="303" y="455"/>
      <point x="303" y="441" type="curve" smooth="yes"/>
      <point x="303" y="414"/>
      <point x="286" y="393"/>
      <point x="262" y="393" type="curve" smooth="yes"/>
      <point x="230" y="393"/>
      <point x="208" y="424"/>
      <point x="208" y="465" type="curve" smooth="yes"/>
      <point x="208" y="540"/>
      <point x="263" y="611"/>
      <point x="353" y="657" type="curve" smooth="yes"/>
      <point x="356" y="658"/>
      <point x="362" y="657"/>
    </contour>
  </outline>
</glyph>
<glyph name="quotedblright" format="1">
  <advance width="509"/>
  <unicode hex="201D"/>
  <outline>
    <contour>
      <point x="519" y="584" type="curve" smooth="yes"/>
      <point x="519" y="510"/>
      <point x="466" y="440"/>
      <point x="376" y="393" type="curve" smooth="yes"/>
      <point x="362" y="386"/>
      <point x="350" y="409"/>
      <point x="366" y="413" type="curve"/>
      <point x="431" y="456"/>
      <point x="454" y="486"/>
      <point x="454" y="524" type="curve" smooth="yes"/>
      <point x="454" y="539"/>
      <point x="452" y="548"/>
      <point x="441" y="565" type="curve" smooth="yes"/>
      <point x="431" y="581"/>
      <point x="426" y="596"/>
      <point x="426" y="609" type="curve" smooth="yes"/>
      <point x="426" y="637"/>
      <point x="443" y="657"/>
      <point x="467" y="657" type="curve" smooth="yes"/>
      <point x="498" y="657"/>
      <point x="519" y="627"/>
    </contour>
    <contour>
      <point x="319" y="584" type="curve" smooth="yes"/>
      <point x="319" y="510"/>
      <point x="265" y="438"/>
      <point x="175" y="393" type="curve" smooth="yes"/>
      <point x="163" y="387"/>
      <point x="155" y="406"/>
      <point x="165" y="413" type="curve" smooth="yes"/>
      <point x="230" y="456"/>
      <point x="253" y="486"/>
      <point x="253" y="524" type="curve" smooth="yes"/>
      <point x="253" y="539"/>
      <point x="250" y="548"/>
      <point x="240" y="564" type="curve" smooth="yes"/>
      <point x="229" y="582"/>
      <point x="225" y="596"/>
      <point x="225" y="609" type="curve" smooth="yes"/>
      <point x="225" y="637"/>
      <point x="242" y="657"/>
      <point x="266" y="657" type="curve" smooth="yes"/>
      <point x="298" y="657"/>
      <point x="319" y="627"/>
    </contour>
  </outline>
</glyph>
<glyph name="quotedblbase" format="1">
  <advance width="509"/>
  <unicode hex="201E"/>
  <outline>
    <contour>
      <point x="407" y="21" type="curve" smooth="yes"/>
      <point x="407" y="-56"/>
      <point x="353" y="-129"/>
      <point x="259" y="-178" type="curve" smooth="yes"/>
      <point x="257" y="-179"/>
      <point x="247" y="-175"/>
      <point x="247" y="-172" type="curve" smooth="yes"/>
      <point x="245" y="-168"/>
      <point x="244" y="-160"/>
      <point x="250" y="-156" type="curve" smooth="yes"/>
      <point x="316" y="-112"/>
      <point x="339" y="-81"/>
      <point x="339" y="-43" type="curve" smooth="yes"/>
      <point x="339" y="-28"/>
      <point x="336" y="-18"/>
      <point x="325" y="0" type="curve" smooth="yes"/>
      <point x="314" y="18"/>
      <point x="310" y="32"/>
      <point x="310" y="46" type="curve" smooth="yes"/>
      <point x="310" y="75"/>
      <point x="328" y="96"/>
      <point x="352" y="96" type="curve" smooth="yes"/>
      <point x="384" y="96"/>
      <point x="407" y="64"/>
    </contour>
    <contour>
      <point x="200" y="21" type="curve" smooth="yes"/>
      <point x="200" y="-56"/>
      <point x="146" y="-129"/>
      <point x="53" y="-178" type="curve" smooth="yes"/>
      <point x="50" y="-179"/>
      <point x="41" y="-176"/>
      <point x="42" y="-169" type="curve" smooth="yes"/>
      <point x="40" y="-166"/>
      <point x="40" y="-158"/>
      <point x="44" y="-156" type="curve" smooth="yes"/>
      <point x="109" y="-112"/>
      <point x="133" y="-81"/>
      <point x="133" y="-43" type="curve" smooth="yes"/>
      <point x="133" y="-28"/>
      <point x="130" y="-18"/>
      <point x="119" y="0" type="curve" smooth="yes"/>
      <point x="107" y="18"/>
      <point x="103" y="32"/>
      <point x="103" y="46" type="curve" smooth="yes"/>
      <point x="103" y="75"/>
      <point x="121" y="96"/>
      <point x="146" y="96" type="curve" smooth="yes"/>
      <point x="178" y="96"/>
      <point x="200" y="64"/>
    </contour>
  </outline>
</glyph>
<glyph name="dagger" format="1">
  <advance width="487"/>
  <unicode hex="2020"/>
  <outline>
    <contour>
      <point x="501" y="428" type="curve" smooth="yes"/>
      <point x="501" y="426"/>
      <point x="500" y="423"/>
      <point x="499" y="420" type="curve" smooth="yes"/>
      <point x="493" y="387" type="line" smooth="yes"/>
      <point x="490" y="373"/>
      <point x="484" y="365"/>
      <point x="475" y="365" type="curve" smooth="yes"/>
      <point x="472" y="365"/>
      <point x="465" y="366"/>
      <point x="456" y="367" type="curve" smooth="yes"/>
      <point x="308" y="390" type="line"/>
      <point x="226" y="-179" type="line"/>
      <point x="220" y="-217" type="line" smooth="yes"/>
      <point x="216" y="-242"/>
      <point x="211" y="-243"/>
      <point x="167" y="-243" type="curve" smooth="yes"/>
      <point x="130" y="-243"/>
      <point x="119" y="-242"/>
      <point x="119" y="-225" type="curve" smooth="yes"/>
      <point x="119" y="-223"/>
      <point x="120" y="-219"/>
      <point x="121" y="-214" type="curve" smooth="yes"/>
      <point x="123" y="-208"/>
      <point x="125" y="-200"/>
      <point x="128" y="-189" type="curve" smooth="yes"/>
      <point x="273" y="389" type="line"/>
      <point x="117" y="367" type="line" smooth="yes"/>
      <point x="110" y="366"/>
      <point x="105" y="366"/>
      <point x="99" y="366" type="curve" smooth="yes"/>
      <point x="84" y="366"/>
      <point x="78" y="369"/>
      <point x="78" y="382" type="curve" smooth="yes"/>
      <point x="78" y="385"/>
      <point x="78" y="389"/>
      <point x="79" y="393" type="curve" smooth="yes"/>
      <point x="84" y="421" type="line" smooth="yes"/>
      <point x="87" y="440"/>
      <point x="95" y="450"/>
      <point x="107" y="450" type="curve" smooth="yes"/>
      <point x="110" y="450"/>
      <point x="116" y="449"/>
      <point x="125" y="448" type="curve" smooth="yes"/>
      <point x="280" y="423" type="line"/>
      <point x="302" y="660" type="line" smooth="yes"/>
      <point x="305" y="694"/>
      <point x="311" y="700"/>
      <point x="340" y="700" type="curve" smooth="yes"/>
      <point x="379" y="700"/>
      <point x="392" y="696"/>
      <point x="392" y="678" type="curve" smooth="yes"/>
      <point x="392" y="673"/>
      <point x="390" y="665"/>
      <point x="387" y="655" type="curve" smooth="yes"/>
      <point x="314" y="424" type="line"/>
      <point x="467" y="448" type="line" smooth="yes"/>
      <point x="474" y="449"/>
      <point x="480" y="449"/>
      <point x="484" y="449" type="curve" smooth="yes"/>
      <point x="494" y="449"/>
      <point x="501" y="443"/>
      <point x="501" y="433" type="curve" smooth="yes"/>
      <point x="501" y="432"/>
      <point x="501" y="430"/>
    </contour>
  </outline>
</glyph>
<glyph name="bullet" format="1">
  <advance width="360"/>
  <unicode hex="2022"/>
  <outline>
    <contour>
      <point x="367" y="324" type="curve" smooth="yes"/>
      <point x="367" y="252"/>
      <point x="310" y="195"/>
      <point x="240" y="195" type="curve" smooth="yes"/>
      <point x="171" y="195"/>
      <point x="114" y="252"/>
      <point x="114" y="324" type="curve" smooth="yes"/>
      <point x="114" y="394"/>
      <point x="171" y="452"/>
      <point x="240" y="452" type="curve" smooth="yes"/>
      <point x="310" y="452"/>
      <point x="367" y="394"/>
    </contour>
  </outline>
</glyph>
<glyph name="ellipsis" format="1">
  <advance width="1017"/>
  <unicode hex="2026"/>
  <outline>
    <contour>
      <point x="894" y="48" type="curve" smooth="yes"/>
      <point x="894" y="13"/>
      <point x="872" y="-14"/>
      <point x="843" y="-14" type="curve" smooth="yes"/>
      <point x="811" y="-14"/>
      <point x="797" y="16"/>
      <point x="800" y="43" type="curve" smooth="yes"/>
      <point x="803" y="75"/>
      <point x="825" y="96"/>
      <point x="852" y="96" type="curve" smooth="yes"/>
      <point x="877" y="96"/>
      <point x="894" y="76"/>
    </contour>
    <contour>
      <point x="556" y="42" type="curve" smooth="yes"/>
      <point x="556" y="7"/>
      <point x="534" y="-14"/>
      <point x="505" y="-14" type="curve" smooth="yes"/>
      <point x="466" y="-14"/>
      <point x="461" y="22"/>
      <point x="463" y="42" type="curve" smooth="yes"/>
      <point x="467" y="73"/>
      <point x="487" y="96"/>
      <point x="514" y="96" type="curve" smooth="yes"/>
      <point x="545" y="96"/>
      <point x="556" y="71"/>
    </contour>
    <contour>
      <point x="216" y="48" type="curve" smooth="yes"/>
      <point x="216" y="13"/>
      <point x="195" y="-14"/>
      <point x="165" y="-14" type="curve" smooth="yes"/>
      <point x="132" y="-14"/>
      <point x="121" y="13"/>
      <point x="125" y="42" type="curve" smooth="yes"/>
      <point x="129" y="73"/>
      <point x="149" y="96"/>
      <point x="175" y="96" type="curve" smooth="yes"/>
      <point x="200" y="96"/>
      <point x="216" y="76"/>
    </contour>
  </outline>
</glyph>
<glyph name="perthousand" format="1">
  <advance width="1017"/>
  <unicode hex="2030"/>
  <outline>
    <contour>
      <point x="1014" y="167" type="curve" smooth="yes"/>
      <point x="995" y="69"/>
      <point x="922" y="-10"/>
      <point x="845" y="-10" type="curve" smooth="yes"/>
      <point x="765" y="-10"/>
      <point x="723" y="71"/>
      <point x="742" y="170" type="curve" smooth="yes"/>
      <point x="761" y="268"/>
      <point x="835" y="347"/>
      <point x="912" y="347" type="curve" smooth="yes"/>
      <point x="990" y="347"/>
      <point x="1033" y="265"/>
    </contour>
    <contour>
      <point x="702" y="167" type="curve" smooth="yes"/>
      <point x="683" y="69"/>
      <point x="610" y="-10"/>
      <point x="533" y="-10" type="curve" smooth="yes"/>
      <point x="453" y="-10"/>
      <point x="411" y="71"/>
      <point x="430" y="170" type="curve" smooth="yes"/>
      <point x="449" y="268"/>
      <point x="523" y="347"/>
      <point x="600" y="347" type="curve" smooth="yes"/>
      <point x="679" y="347"/>
      <point x="721" y="265"/>
    </contour>
    <contour>
      <point x="605" y="595" type="curve" smooth="yes"/>
      <point x="187" y="-37" type="line" smooth="yes"/>
      <point x="181" y="-46"/>
      <point x="179" y="-50"/>
      <point x="168" y="-50" type="curve" smooth="yes"/>
      <point x="153" y="-50" type="line" smooth="yes"/>
      <point x="142" y="-48"/>
      <point x="135" y="-39"/>
      <point x="143" y="-27" type="curve" smooth="yes"/>
      <point x="346" y="281"/>
      <point x="435" y="415"/>
      <point x="480" y="483" type="curve" smooth="yes"/>
      <point x="525" y="552"/>
      <point x="528" y="555"/>
      <point x="560" y="604" type="curve" smooth="yes"/>
      <point x="566" y="612"/>
      <point x="568" y="616"/>
      <point x="580" y="616" type="curve" smooth="yes"/>
      <point x="590" y="617"/>
      <point x="605" y="614"/>
      <point x="605" y="614" type="curve" smooth="yes"/>
      <point x="615" y="610"/>
      <point x="610" y="598"/>
    </contour>
    <contour>
      <point x="332" y="434" type="curve" smooth="yes"/>
      <point x="313" y="336"/>
      <point x="240" y="257"/>
      <point x="163" y="257" type="curve" smooth="yes"/>
      <point x="83" y="257"/>
      <point x="41" y="339"/>
      <point x="60" y="437" type="curve" smooth="yes"/>
      <point x="79" y="535"/>
      <point x="153" y="614"/>
      <point x="230" y="614" type="curve" smooth="yes"/>
      <point x="309" y="614"/>
      <point x="351" y="532"/>
    </contour>
    <contour>
      <point x="944" y="170" type="curve" smooth="yes"/>
      <point x="965" y="278"/>
      <point x="949" y="318"/>
      <point x="909" y="318" type="curve" smooth="yes"/>
      <point x="865" y="318"/>
      <point x="832" y="273"/>
      <point x="811" y="167" type="curve" smooth="yes"/>
      <point x="790" y="59"/>
      <point x="807" y="19"/>
      <point x="848" y="19" type="curve" smooth="yes"/>
      <point x="891" y="19"/>
      <point x="924" y="63"/>
    </contour>
    <contour>
      <point x="633" y="170" type="curve" smooth="yes"/>
      <point x="654" y="278"/>
      <point x="638" y="318"/>
      <point x="597" y="318" type="curve" smooth="yes"/>
      <point x="553" y="318"/>
      <point x="520" y="273"/>
      <point x="499" y="167" type="curve" smooth="yes"/>
      <point x="478" y="59"/>
      <point x="495" y="19"/>
      <point x="536" y="19" type="curve" smooth="yes"/>
      <point x="580" y="19"/>
      <point x="612" y="63"/>
    </contour>
    <contour>
      <point x="263" y="437" type="curve" smooth="yes"/>
      <point x="284" y="545"/>
      <point x="268" y="585"/>
      <point x="227" y="585" type="curve" smooth="yes"/>
      <point x="183" y="585"/>
      <point x="150" y="540"/>
      <point x="129" y="434" type="curve" smooth="yes"/>
      <point x="108" y="326"/>
      <point x="125" y="286"/>
      <point x="166" y="286" type="curve" smooth="yes"/>
      <point x="210" y="286"/>
      <point x="242" y="330"/>
    </contour>
  </outline>
</glyph>
<glyph name="guilsinglright" format="1">
  <advance width="737"/>
  <unicode hex="203A"/>
  <outline>
    <contour>
      <point x="191" y="346" type="curve" smooth="yes"/>
      <point x="149" y="109" type="line" smooth="yes"/>
      <point x="128" y="-9"/>
      <point x="104" y="-163"/>
      <point x="1" y="-239" type="curve" smooth="yes"/>
      <point x="-29" y="-261"/>
      <point x="-62" y="-275"/>
      <point x="-98" y="-275" type="curve" smooth="yes"/>
      <point x="-141" y="-275"/>
      <point x="-180" y="-246"/>
      <point x="-175" y="-218" type="curve" smooth="yes"/>
      <point x="-169" y="-188"/>
      <point x="-150" y="-188"/>
      <point x="-132" y="-189" type="curve" smooth="yes"/>
      <point x="-118" y="-190"/>
      <point x="-106" y="-206"/>
      <point x="-96" y="-215" type="curve" smooth="yes"/>
      <point x="-85" y="-226"/>
      <point x="-74" y="-234"/>
      <point x="-58" y="-234" type="curve" smooth="yes"/>
      <point x="-30" y="-234"/>
      <point x="2" y="-210"/>
      <point x="18" y="-179" type="curve" smooth="yes"/>
      <point x="27" y="-161"/>
      <point x="34" y="-135"/>
      <point x="41" y="-102" type="curve" smooth="yes"/>
      <point x="48" y="-69"/>
      <point x="55" y="-29"/>
      <point x="64" y="16" type="curve" smooth="yes"/>
      <point x="86" y="131"/>
      <point x="103" y="238"/>
      <point x="122" y="350" type="curve" smooth="yes"/>
      <point x="123" y="358"/>
      <point x="121" y="371"/>
      <point x="110" y="370" type="curve" smooth="yes"/>
      <point x="68" y="373" type="line" smooth="yes"/>
      <point x="56" y="370"/>
      <point x="60" y="394"/>
      <point x="71" y="400" type="curve"/>
      <point x="108" y="403"/>
      <point x="123" y="407"/>
      <point x="132" y="412" type="curve"/>
      <point x="139" y="449"/>
      <point x="151" y="512"/>
      <point x="165" y="552" type="curve" smooth="yes"/>
      <point x="186" y="611"/>
      <point x="204" y="646"/>
      <point x="231" y="678" type="curve" smooth="yes"/>
      <point x="268" y="724"/>
      <point x="331" y="750"/>
      <point x="377" y="750" type="curve" smooth="yes"/>
      <point x="471" y="750"/>
      <point x="475" y="641"/>
      <point x="408" y="649" type="curve" smooth="yes"/>
      <point x="375" y="652"/>
      <point x="363" y="705"/>
      <point x="325" y="705" type="curve" smooth="yes"/>
      <point x="307" y="705"/>
      <point x="279" y="693"/>
      <point x="265" y="672" type="curve" smooth="yes"/>
      <point x="249" y="646"/>
      <point x="235" y="598"/>
      <point x="221" y="514" type="curve" smooth="yes"/>
      <point x="207" y="433" type="line" smooth="yes"/>
      <point x="205" y="422"/>
      <point x="221" y="415"/>
      <point x="232" y="415" type="curve" smooth="yes"/>
      <point x="254" y="414"/>
      <point x="301" y="415"/>
      <point x="318" y="415" type="curve" smooth="yes"/>
      <point x="335" y="415"/>
      <point x="351" y="415"/>
      <point x="351" y="415" type="curve" smooth="yes"/>
      <point x="384" y="415"/>
      <point x="391" y="428"/>
      <point x="393" y="437" type="curve" smooth="yes"/>
      <point x="400" y="473"/>
      <point x="411" y="519"/>
      <point x="422" y="552" type="curve" smooth="yes"/>
      <point x="442" y="611"/>
      <point x="460" y="647"/>
      <point x="487" y="679" type="curve" smooth="yes"/>
      <point x="529" y="731"/>
      <point x="618" y="777"/>
      <point x="683" y="737" type="curve" smooth="yes"/>
      <point x="689" y="734"/>
      <point x="696" y="733"/>
      <point x="702" y="736" type="curve" smooth="yes"/>
      <point x="711" y="740"/>
      <point x="718" y="745"/>
      <point x="726" y="750" type="curve" smooth="yes"/>
      <point x="734" y="760"/>
      <point x="744" y="759"/>
      <point x="746" y="749" type="curve" smooth="yes"/>
      <point x="629" y="70" type="line" smooth="yes"/>
      <point x="628" y="63"/>
      <point x="627" y="44"/>
      <point x="637" y="44" type="curve" smooth="yes"/>
      <point x="650" y="44"/>
      <point x="664" y="51"/>
      <point x="703" y="100" type="curve" smooth="yes"/>
      <point x="711" y="110"/>
      <point x="734" y="93"/>
      <point x="725" y="81" type="curve" smooth="yes"/>
      <point x="671" y="12"/>
      <point x="631" y="-15"/>
      <point x="594" y="-15" type="curve" smooth="yes"/>
      <point x="568" y="-15"/>
      <point x="558" y="1"/>
      <point x="556" y="23" type="curve" smooth="yes"/>
      <point x="554" y="44"/>
      <point x="558" y="67"/>
      <point x="562" y="88" type="curve" smooth="yes"/>
      <point x="609" y="343" type="line" smooth="yes"/>
      <point x="611" y="351"/>
      <point x="611" y="372"/>
      <point x="598" y="373" type="curve" smooth="yes"/>
      <point x="536" y="374"/>
      <point x="496" y="372"/>
      <point x="466" y="372" type="curve" smooth="yes"/>
      <point x="457" y="370"/>
      <point x="449" y="362"/>
      <point x="447" y="350" type="curve" smooth="yes"/>
      <point x="406" y="109" type="line" smooth="yes"/>
      <point x="386" y="-9"/>
      <point x="360" y="-163"/>
      <point x="257" y="-239" type="curve" smooth="yes"/>
      <point x="227" y="-261"/>
      <point x="195" y="-275"/>
      <point x="158" y="-275" type="curve" smooth="yes"/>
      <point x="115" y="-275"/>
      <point x="76" y="-246"/>
      <point x="81" y="-218" type="curve" smooth="yes"/>
      <point x="86" y="-188"/>
      <point x="106" y="-188"/>
      <point x="124" y="-189" type="curve" smooth="yes"/>
      <point x="139" y="-190"/>
      <point x="150" y="-205"/>
      <point x="161" y="-215" type="curve" smooth="yes"/>
      <point x="171" y="-225"/>
      <point x="182" y="-234"/>
      <point x="198" y="-234" type="curve" smooth="yes"/>
      <point x="227" y="-234"/>
      <point x="258" y="-210"/>
      <point x="274" y="-179" type="curve" smooth="yes"/>
      <point x="283" y="-161"/>
      <point x="290" y="-135"/>
      <point x="297" y="-102" type="curve" smooth="yes"/>
      <point x="304" y="-69"/>
      <point x="312" y="-29"/>
      <point x="320" y="16" type="curve" smooth="yes"/>
      <point x="343" y="132"/>
      <point x="359" y="237"/>
      <point x="378" y="350" type="curve" smooth="yes"/>
      <point x="379" y="356"/>
      <point x="377" y="368"/>
      <point x="369" y="370" type="curve" smooth="yes"/>
      <point x="353" y="371"/>
      <point x="353" y="371"/>
      <point x="352" y="371" type="curve" smooth="yes"/>
      <point x="351" y="371"/>
      <point x="242" y="370"/>
      <point x="222" y="370" type="curve" smooth="yes"/>
      <point x="210" y="369"/>
      <point x="194" y="364"/>
    </contour>
    <contour>
      <point x="521" y="672" type="curve" smooth="yes"/>
      <point x="505" y="646"/>
      <point x="491" y="598"/>
      <point x="477" y="514" type="curve" smooth="yes"/>
      <point x="464" y="439" type="line" smooth="yes"/>
      <point x="461" y="430"/>
      <point x="465" y="414"/>
      <point x="472" y="414" type="curve" smooth="yes"/>
      <point x="506" y="414"/>
      <point x="563" y="413"/>
      <point x="602" y="414" type="curve" smooth="yes"/>
      <point x="610" y="414"/>
      <point x="624" y="416"/>
      <point x="627" y="434" type="curve" smooth="yes"/>
      <point x="668" y="651" type="line"/>
      <point x="634" y="711"/>
      <point x="563" y="736"/>
    </contour>
  </outline>
</glyph>
<glyph name="Euro" format="1">
  <advance width="463"/>
  <unicode hex="20AC"/>
  <outline>
    <contour>
      <point x="373" y="263" type="line" smooth="yes"/>
      <point x="384" y="263"/>
      <point x="387" y="258"/>
      <point x="387" y="252" type="curve" smooth="yes"/>
      <point x="387" y="241"/>
      <point x="379" y="224"/>
      <point x="367" y="224" type="curve" smooth="yes"/>
      <point x="182" y="224" type="line"/>
      <point x="183" y="118"/>
      <point x="210" y="8"/>
      <point x="290" y="8" type="curve" smooth="yes"/>
      <point x="355" y="8"/>
      <point x="416" y="49"/>
      <point x="451" y="139" type="curve" smooth="yes"/>
      <point x="455" y="150"/>
      <point x="459" y="151"/>
      <point x="466" y="151" type="curve" smooth="yes"/>
      <point x="474" y="151"/>
      <point x="480" y="149"/>
      <point x="477" y="137" type="curve" smooth="yes"/>
      <point x="466" y="97"/>
      <point x="454" y="32"/>
      <point x="448" y="-2" type="curve"/>
      <point x="441" y="1"/>
      <point x="419" y="2"/>
      <point x="414" y="2" type="curve" smooth="yes"/>
      <point x="385" y="2"/>
      <point x="340" y="-18"/>
      <point x="274" y="-18" type="curve" smooth="yes"/>
      <point x="173" y="-18"/>
      <point x="94" y="48"/>
      <point x="86" y="224" type="curve"/>
      <point x="21" y="224" type="line" smooth="yes"/>
      <point x="10" y="224"/>
      <point x="7" y="229"/>
      <point x="7" y="235" type="curve" smooth="yes"/>
      <point x="7" y="246"/>
      <point x="15" y="263"/>
      <point x="27" y="263" type="curve" smooth="yes"/>
      <point x="85" y="263" type="line"/>
      <point x="85" y="288"/>
      <point x="88" y="313"/>
      <point x="92" y="337" type="curve"/>
      <point x="44" y="337" type="line" smooth="yes"/>
      <point x="33" y="337"/>
      <point x="30" y="342"/>
      <point x="30" y="348" type="curve" smooth="yes"/>
      <point x="30" y="359"/>
      <point x="38" y="376"/>
      <point x="50" y="376" type="curve" smooth="yes"/>
      <point x="101" y="376" type="line"/>
      <point x="133" y="493"/>
      <point x="246" y="613"/>
      <point x="373" y="613" type="curve" smooth="yes"/>
      <point x="420" y="613"/>
      <point x="484" y="600"/>
      <point x="527" y="572" type="curve" smooth="yes"/>
      <point x="531" y="569"/>
      <point x="536" y="561"/>
      <point x="532" y="545" type="curve" smooth="yes"/>
      <point x="524" y="514"/>
      <point x="516" y="469"/>
      <point x="509" y="429" type="curve" smooth="yes"/>
      <point x="508" y="422"/>
      <point x="501" y="423"/>
      <point x="495" y="423" type="curve" smooth="yes"/>
      <point x="487" y="423"/>
      <point x="483" y="425"/>
      <point x="483" y="440" type="curve" smooth="yes"/>
      <point x="483" y="541"/>
      <point x="448" y="586"/>
      <point x="379" y="586" type="curve" smooth="yes"/>
      <point x="288" y="586"/>
      <point x="221" y="499"/>
      <point x="195" y="376" type="curve"/>
      <point x="396" y="376" type="line" smooth="yes"/>
      <point x="407" y="376"/>
      <point x="410" y="371"/>
      <point x="410" y="365" type="curve" smooth="yes"/>
      <point x="410" y="354"/>
      <point x="402" y="337"/>
      <point x="390" y="337" type="curve" smooth="yes"/>
      <point x="188" y="337" type="line"/>
      <point x="185" y="313"/>
      <point x="183" y="289"/>
      <point x="182" y="263" type="curve"/>
    </contour>
  </outline>
</glyph>
<glyph name="minus" format="1">
  <advance width="679"/>
  <unicode hex="2212"/>
  <outline>
    <contour>
      <point x="609" y="306" type="line"/>
      <point x="69" y="306" type="line"/>
      <point x="69" y="363" type="line"/>
      <point x="609" y="363" type="line"/>
    </contour>
  </outline>
</glyph>
<glyph name="f_i" format="1">
  <advance width="504"/>
  <unicode hex="FB01"/>
  <outline>
    <contour>
      <point x="488" y="80" type="curve"/>
      <point x="436" y="13"/>
      <point x="395" y="-14"/>
      <point x="358" y="-14" type="curve" smooth="yes"/>
      <point x="316" y="-14"/>
      <point x="318" y="28"/>
      <point x="323" y="58" type="curve" smooth="yes"/>
      <point x="341" y="164"/>
      <point x="357" y="257"/>
      <point x="374" y="356" type="curve" smooth="yes"/>
      <point x="375" y="362"/>
      <point x="377" y="375"/>
      <point x="368" y="375" type="curve" smooth="yes"/>
      <point x="332" y="376"/>
      <point x="266" y="376"/>
      <point x="233" y="375" type="curve" smooth="yes"/>
      <point x="224" y="375"/>
      <point x="224" y="370"/>
      <point x="220" y="362" type="curve" smooth="yes"/>
      <point x="176" y="109" type="line" smooth="yes"/>
      <point x="156" y="-9"/>
      <point x="130" y="-164"/>
      <point x="26" y="-239" type="curve" smooth="yes"/>
      <point x="-4" y="-261"/>
      <point x="-37" y="-275"/>
      <point x="-73" y="-275" type="curve" smooth="yes"/>
      <point x="-116" y="-275"/>
      <point x="-154" y="-246"/>
      <point x="-149" y="-220" type="curve" smooth="yes"/>
      <point x="-143" y="-191"/>
      <point x="-126" y="-191"/>
      <point x="-108" y="-192" type="curve" smooth="yes"/>
      <point x="-97" y="-193"/>
      <point x="-89" y="-201"/>
      <point x="-82" y="-208" type="curve" smooth="yes"/>
      <point x="-68" y="-222"/>
      <point x="-55" y="-238"/>
      <point x="-32" y="-238" type="curve" smooth="yes"/>
      <point x="-3" y="-238"/>
      <point x="30" y="-213"/>
      <point x="46" y="-181" type="curve" smooth="yes"/>
      <point x="55" y="-163"/>
      <point x="61" y="-137"/>
      <point x="69" y="-103" type="curve" smooth="yes"/>
      <point x="76" y="-70"/>
      <point x="84" y="-30"/>
      <point x="93" y="14" type="curve" smooth="yes"/>
      <point x="115" y="130"/>
      <point x="134" y="250"/>
      <point x="153" y="363" type="curve" smooth="yes"/>
      <point x="154" y="366"/>
      <point x="151" y="374"/>
      <point x="146" y="374" type="curve" smooth="yes"/>
      <point x="95" y="374" type="line" smooth="yes"/>
      <point x="89" y="373"/>
      <point x="89" y="381"/>
      <point x="90" y="387" type="curve" smooth="yes"/>
      <point x="92" y="395"/>
      <point x="97" y="398"/>
      <point x="99" y="399" type="curve" smooth="yes"/>
      <point x="137" y="402"/>
      <point x="152" y="406"/>
      <point x="162" y="412" type="curve"/>
      <point x="168" y="449"/>
      <point x="181" y="512"/>
      <point x="195" y="552" type="curve" smooth="yes"/>
      <point x="216" y="612"/>
      <point x="234" y="647"/>
      <point x="261" y="679" type="curve" smooth="yes"/>
      <point x="298" y="724"/>
      <point x="362" y="750"/>
      <point x="408" y="750" type="curve" smooth="yes"/>
      <point x="500" y="750"/>
      <point x="504" y="645"/>
      <point x="439" y="652" type="curve" smooth="yes"/>
      <point x="422" y="654"/>
      <point x="409" y="672"/>
      <point x="398" y="684" type="curve" smooth="yes"/>
      <point x="387" y="696"/>
      <point x="374" y="709"/>
      <point x="355" y="708" type="curve" smooth="yes"/>
      <point x="337" y="708"/>
      <point x="307" y="696"/>
      <point x="293" y="675" type="curve" smooth="yes"/>
      <point x="276" y="648"/>
      <point x="263" y="599"/>
      <point x="248" y="516" type="curve" smooth="yes"/>
      <point x="231" y="422" type="line" smooth="yes"/>
      <point x="229" y="413"/>
      <point x="238" y="412"/>
      <point x="239" y="412" type="curve" smooth="yes"/>
      <point x="262" y="411"/>
      <point x="310" y="411"/>
      <point x="332" y="412" type="curve" smooth="yes"/>
      <point x="361" y="413"/>
      <point x="377" y="412"/>
      <point x="390" y="414" type="curve" smooth="yes"/>
      <point x="403" y="416"/>
      <point x="412" y="419"/>
      <point x="429" y="422" type="curve" smooth="yes"/>
      <point x="439" y="424"/>
      <point x="451" y="429"/>
      <point x="452" y="422" type="curve" smooth="yes"/>
      <point x="389" y="58" type="line" smooth="yes"/>
      <point x="388" y="50"/>
      <point x="384" y="32"/>
      <point x="397" y="32" type="curve" smooth="yes"/>
      <point x="406" y="32"/>
      <point x="432" y="49"/>
      <point x="469" y="96" type="curve" smooth="yes"/>
      <point x="477" y="106"/>
      <point x="492" y="92"/>
    </contour>
  </outline>
</glyph>
<glyph name="f_l" format="1">
  <advance width="487"/>
  <unicode hex="FB02"/>
  <outline>
    <contour>
      <point x="497" y="751" type="curve" smooth="yes"/>
      <point x="377" y="58" type="line" smooth="yes"/>
      <point x="376" y="50"/>
      <point x="373" y="34"/>
      <point x="386" y="34" type="curve" smooth="yes"/>
      <point x="400" y="34"/>
      <point x="418" y="50"/>
      <point x="458" y="99" type="curve" smooth="yes"/>
      <point x="464" y="106"/>
      <point x="484" y="91"/>
      <point x="476" y="81" type="curve" smooth="yes"/>
      <point x="423" y="13"/>
      <point x="383" y="-14"/>
      <point x="346" y="-14" type="curve" smooth="yes"/>
      <point x="320" y="-14"/>
      <point x="311" y="2"/>
      <point x="309" y="23" type="curve" smooth="yes"/>
      <point x="307" y="44"/>
      <point x="312" y="66"/>
      <point x="316" y="87" type="curve" smooth="yes"/>
      <point x="367" y="361" type="line" smooth="yes"/>
      <point x="367" y="362"/>
      <point x="365" y="374"/>
      <point x="357" y="374" type="curve" smooth="yes"/>
      <point x="295" y="376"/>
      <point x="243" y="374"/>
      <point x="212" y="374" type="curve" smooth="yes"/>
      <point x="207" y="374"/>
      <point x="198" y="370"/>
      <point x="198" y="360" type="curve" smooth="yes"/>
      <point x="154" y="109" type="line" smooth="yes"/>
      <point x="133" y="-9"/>
      <point x="108" y="-164"/>
      <point x="4" y="-239" type="curve" smooth="yes"/>
      <point x="-26" y="-261"/>
      <point x="-59" y="-275"/>
      <point x="-95" y="-275" type="curve" smooth="yes"/>
      <point x="-138" y="-275"/>
      <point x="-176" y="-246"/>
      <point x="-171" y="-220" type="curve" smooth="yes"/>
      <point x="-165" y="-191"/>
      <point x="-147" y="-191"/>
      <point x="-129" y="-192" type="curve" smooth="yes"/>
      <point x="-119" y="-193"/>
      <point x="-111" y="-201"/>
      <point x="-104" y="-208" type="curve" smooth="yes"/>
      <point x="-90" y="-222"/>
      <point x="-77" y="-238"/>
      <point x="-54" y="-238" type="curve" smooth="yes"/>
      <point x="-25" y="-238"/>
      <point x="8" y="-213"/>
      <point x="24" y="-181" type="curve" smooth="yes"/>
      <point x="33" y="-163"/>
      <point x="40" y="-137"/>
      <point x="48" y="-103" type="curve" smooth="yes"/>
      <point x="55" y="-70"/>
      <point x="62" y="-30"/>
      <point x="71" y="14" type="curve" smooth="yes"/>
      <point x="94" y="131"/>
      <point x="112" y="248"/>
      <point x="131" y="362" type="curve" smooth="yes"/>
      <point x="132" y="363"/>
      <point x="129" y="375"/>
      <point x="120" y="374" type="curve" smooth="yes"/>
      <point x="69" y="374" type="line" smooth="yes"/>
      <point x="58" y="374"/>
      <point x="59" y="395"/>
      <point x="74" y="397" type="curve" smooth="yes"/>
      <point x="104" y="400"/>
      <point x="118" y="405"/>
      <point x="140" y="412" type="curve"/>
      <point x="147" y="449"/>
      <point x="159" y="512"/>
      <point x="173" y="552" type="curve" smooth="yes"/>
      <point x="193" y="612"/>
      <point x="212" y="647"/>
      <point x="239" y="679" type="curve" smooth="yes"/>
      <point x="284" y="734"/>
      <point x="380" y="781"/>
      <point x="446" y="731" type="curve"/>
      <point x="459" y="736"/>
      <point x="470" y="744"/>
      <point x="481" y="751" type="curve"/>
      <point x="489" y="761"/>
      <point x="496" y="758"/>
    </contour>
    <contour>
      <point x="423" y="652" type="line"/>
      <point x="388" y="714"/>
      <point x="314" y="741"/>
      <point x="272" y="675" type="curve" smooth="yes"/>
      <point x="254" y="648"/>
      <point x="241" y="599"/>
      <point x="226" y="516" type="curve" smooth="yes"/>
      <point x="210" y="427" type="line" smooth="yes"/>
      <point x="209" y="423"/>
      <point x="211" y="413"/>
      <point x="221" y="413" type="curve" smooth="yes"/>
      <point x="255" y="412"/>
      <point x="326" y="412"/>
      <point x="366" y="413" type="curve" smooth="yes"/>
      <point x="373" y="413"/>
      <point x="377" y="416"/>
      <point x="379" y="423" type="curve" smooth="yes"/>
    </contour>
  </outline>
</glyph>
